<svg xmlns="http://www.w3.org/2000/svg" xmlns:xlink="http://www.w3.org/1999/xlink" width="500" zoomAndPan="magnify" viewBox="0 0 375 374.999991" height="500" preserveAspectRatio="xMidYMid meet" version="1.0"><defs><clipPath id="7422a03e60"><path d="M 68.980469 77.167969 L 305.980469 77.167969 L 305.980469 297.667969 L 68.980469 297.667969 Z M 68.980469 77.167969 " clip-rule="nonzero"/></clipPath></defs><g clip-path="url(#7422a03e60)"><path fill="#a6a6a6" d="M 302.183594 289.988281 C 299.566406 289.898438 296.941406 289.953125 294.320312 289.949219 L 291.53125 289.949219 L 283.699219 289.933594 L 283.699219 145.1875 L 191.445312 145.1875 L 191.445312 289.777344 C 188.8125 289.777344 186.167969 289.777344 183.523438 289.777344 L 183.523438 77.324219 L 91.183594 77.324219 L 91.183594 289.832031 L 83.433594 289.964844 C 79.789062 289.964844 76.394531 289.925781 73 289.980469 C 72.746094 289.96875 72.496094 289.980469 72.242188 290.019531 C 71.992188 290.054688 71.746094 290.117188 71.507812 290.203125 C 71.269531 290.289062 71.039062 290.398438 70.824219 290.53125 C 70.605469 290.664062 70.402344 290.816406 70.214844 290.988281 C 70.027344 291.160156 69.859375 291.347656 69.710938 291.554688 C 69.5625 291.757812 69.433594 291.976562 69.328125 292.207031 C 69.222656 292.4375 69.140625 292.679688 69.082031 292.925781 C 69.023438 293.171875 68.988281 293.425781 68.980469 293.679688 C 68.980469 293.941406 69.007812 294.199219 69.058594 294.457031 C 69.113281 294.714844 69.191406 294.964844 69.296875 295.203125 C 69.398438 295.445312 69.523438 295.671875 69.675781 295.890625 C 69.824219 296.105469 69.996094 296.304688 70.183594 296.484375 C 70.375 296.664062 70.582031 296.824219 70.804688 296.964844 C 71.023438 297.105469 71.257812 297.21875 71.503906 297.3125 C 71.75 297.402344 72.003906 297.46875 72.261719 297.511719 C 72.523438 297.550781 72.78125 297.566406 73.042969 297.554688 C 73.511719 297.570312 73.964844 297.554688 74.421875 297.554688 L 300.410156 297.554688 C 300.992188 297.554688 301.589844 297.582031 302.175781 297.542969 C 302.671875 297.542969 303.152344 297.445312 303.613281 297.253906 C 304.070312 297.0625 304.476562 296.785156 304.824219 296.429688 C 305.171875 296.074219 305.441406 295.664062 305.625 295.203125 C 305.808594 294.738281 305.894531 294.257812 305.886719 293.761719 C 305.890625 293.515625 305.875 293.269531 305.832031 293.027344 C 305.789062 292.78125 305.722656 292.546875 305.632812 292.316406 C 305.542969 292.085938 305.429688 291.871094 305.296875 291.664062 C 305.164062 291.457031 305.007812 291.261719 304.835938 291.085938 C 304.664062 290.910156 304.476562 290.753906 304.269531 290.617188 C 304.066406 290.476562 303.851562 290.363281 303.625 290.265625 C 303.394531 290.171875 303.160156 290.101562 302.917969 290.054688 C 302.675781 290.007812 302.433594 289.984375 302.183594 289.988281 Z M 206.21875 208.789062 C 206.179688 208.507812 206.167969 208.230469 206.191406 207.949219 C 206.214844 207.667969 206.265625 207.390625 206.351562 207.121094 C 206.433594 206.851562 206.546875 206.59375 206.6875 206.351562 C 206.832031 206.105469 206.996094 205.882812 207.191406 205.675781 C 207.382812 205.46875 207.59375 205.285156 207.828125 205.125 C 208.058594 204.96875 208.308594 204.835938 208.570312 204.730469 C 208.832031 204.628906 209.105469 204.554688 209.382812 204.511719 C 209.660156 204.46875 209.941406 204.457031 210.222656 204.480469 C 216.183594 204.375 222.144531 204.375 228.109375 204.480469 C 228.382812 204.457031 228.65625 204.464844 228.925781 204.503906 C 229.199219 204.542969 229.460938 204.613281 229.71875 204.710938 C 229.976562 204.808594 230.21875 204.933594 230.445312 205.085938 C 230.675781 205.238281 230.886719 205.410156 231.074219 205.609375 C 231.265625 205.808594 231.429688 206.023438 231.574219 206.257812 C 231.714844 206.496094 231.828125 206.742188 231.917969 207.003906 C 232.003906 207.261719 232.058594 207.53125 232.089844 207.804688 C 232.117188 208.074219 232.113281 208.347656 232.082031 208.621094 C 232.132812 214.910156 232.132812 221.199219 232.082031 227.484375 C 232.117188 227.757812 232.125 228.03125 232.105469 228.308594 C 232.082031 228.582031 232.027344 228.851562 231.945312 229.113281 C 231.863281 229.375 231.753906 229.628906 231.613281 229.867188 C 231.476562 230.105469 231.3125 230.324219 231.125 230.527344 C 230.9375 230.726562 230.730469 230.90625 230.503906 231.0625 C 230.277344 231.21875 230.035156 231.347656 229.777344 231.449219 C 229.523438 231.550781 229.257812 231.625 228.984375 231.667969 C 228.714844 231.710938 228.4375 231.722656 228.164062 231.703125 C 222.144531 231.832031 216.117188 231.832031 210.09375 231.703125 C 209.816406 231.71875 209.546875 231.699219 209.273438 231.652344 C 209.003906 231.605469 208.742188 231.527344 208.488281 231.425781 C 208.234375 231.320312 207.996094 231.1875 207.773438 231.03125 C 207.546875 230.871094 207.34375 230.691406 207.15625 230.488281 C 206.972656 230.285156 206.8125 230.066406 206.675781 229.828125 C 206.539062 229.589844 206.429688 229.339844 206.351562 229.078125 C 206.269531 228.8125 206.21875 228.546875 206.195312 228.273438 C 206.171875 228 206.179688 227.726562 206.21875 227.453125 C 206.191406 224.3125 206.21875 221.164062 206.21875 218.023438 C 206.210938 214.945312 206.191406 211.867188 206.21875 208.789062 Z M 206.21875 248.1875 C 206.21875 245.347656 207.515625 243.773438 210.296875 243.71875 C 216.183594 243.601562 222.078125 243.601562 227.980469 243.71875 C 230.761719 243.765625 232.070312 245.316406 232.089844 248.164062 C 232.117188 254.320312 232.117188 260.472656 232.089844 266.632812 C 232.132812 266.921875 232.140625 267.210938 232.117188 267.5 C 232.09375 267.792969 232.039062 268.074219 231.949219 268.351562 C 231.859375 268.632812 231.742188 268.894531 231.589844 269.144531 C 231.441406 269.394531 231.265625 269.625 231.066406 269.835938 C 230.863281 270.046875 230.640625 270.230469 230.394531 270.390625 C 230.152344 270.546875 229.890625 270.675781 229.617188 270.777344 C 229.34375 270.875 229.0625 270.945312 228.773438 270.980469 C 228.484375 271.015625 228.195312 271.015625 227.90625 270.984375 C 222.078125 271.070312 216.246094 271.070312 210.410156 270.984375 C 207.507812 270.941406 206.226562 269.4375 206.21875 266.460938 C 206.199219 263.382812 206.21875 260.304688 206.21875 257.226562 C 206.210938 254.210938 206.199219 251.195312 206.21875 248.195312 Z M 268.878906 227.496094 C 268.855469 230.109375 267.613281 231.660156 264.992188 231.710938 C 258.980469 231.84375 252.953125 231.84375 246.921875 231.710938 C 244.320312 231.65625 243.105469 230.109375 243.097656 227.453125 C 243.074219 221.234375 243.074219 215.011719 243.097656 208.792969 C 243.050781 208.503906 243.039062 208.214844 243.0625 207.925781 C 243.085938 207.636719 243.140625 207.351562 243.226562 207.074219 C 243.316406 206.796875 243.433594 206.535156 243.582031 206.285156 C 243.730469 206.035156 243.90625 205.804688 244.105469 205.59375 C 244.308594 205.382812 244.53125 205.199219 244.777344 205.042969 C 245.019531 204.882812 245.28125 204.757812 245.554688 204.660156 C 245.828125 204.5625 246.109375 204.496094 246.398438 204.460938 C 246.6875 204.429688 246.976562 204.429688 247.265625 204.464844 C 253.09375 204.378906 258.921875 204.378906 264.75 204.464844 C 267.574219 204.507812 268.863281 205.996094 268.871094 208.839844 C 268.894531 211.914062 268.871094 214.996094 268.871094 218.070312 C 268.886719 221.214844 268.902344 224.359375 268.878906 227.496094 Z M 268.878906 266.660156 C 268.921875 266.945312 268.933594 267.234375 268.910156 267.523438 C 268.890625 267.816406 268.835938 268.097656 268.746094 268.375 C 268.660156 268.652344 268.542969 268.914062 268.394531 269.164062 C 268.246094 269.414062 268.070312 269.644531 267.867188 269.855469 C 267.667969 270.0625 267.445312 270.246094 267.203125 270.40625 C 266.957031 270.5625 266.699219 270.691406 266.425781 270.789062 C 266.152344 270.886719 265.871094 270.953125 265.582031 270.988281 C 265.292969 271.019531 265.003906 271.023438 264.71875 270.988281 C 258.886719 271.070312 253.058594 271.070312 247.234375 270.988281 C 244.398438 270.941406 243.113281 269.480469 243.097656 266.632812 C 243.074219 263.488281 243.097656 260.347656 243.097656 257.203125 C 243.097656 254.1875 243.082031 251.179688 243.097656 248.164062 C 243.121094 245.296875 244.371094 243.765625 247.167969 243.714844 C 253.054688 243.601562 258.945312 243.601562 264.847656 243.714844 C 265.128906 243.691406 265.410156 243.699219 265.691406 243.738281 C 265.96875 243.777344 266.242188 243.851562 266.503906 243.949219 C 266.765625 244.050781 267.015625 244.179688 267.25 244.339844 C 267.484375 244.496094 267.699219 244.675781 267.890625 244.882812 C 268.085938 245.089844 268.253906 245.3125 268.398438 245.554688 C 268.539062 245.800781 268.652344 246.054688 268.738281 246.324219 C 268.824219 246.59375 268.878906 246.867188 268.902344 247.148438 C 268.925781 247.429688 268.917969 247.710938 268.878906 247.988281 C 268.902344 254.210938 268.902344 260.429688 268.878906 266.652344 Z M 243.097656 169.371094 C 243.0625 169.09375 243.0625 168.8125 243.09375 168.535156 C 243.121094 168.253906 243.183594 167.980469 243.277344 167.714844 C 243.367188 167.449219 243.488281 167.199219 243.640625 166.960938 C 243.789062 166.722656 243.964844 166.503906 244.164062 166.304688 C 244.363281 166.105469 244.582031 165.933594 244.820312 165.785156 C 245.058594 165.636719 245.3125 165.515625 245.578125 165.421875 C 245.84375 165.332031 246.117188 165.273438 246.394531 165.242188 C 246.675781 165.214844 246.953125 165.214844 247.234375 165.25 C 253.058594 165.203125 258.886719 165.203125 264.71875 165.25 C 267.523438 165.269531 268.863281 166.710938 268.878906 169.558594 C 268.902344 172.703125 268.878906 175.847656 268.878906 178.992188 C 268.878906 182.070312 268.894531 185.148438 268.878906 188.226562 C 268.863281 190.847656 267.589844 192.421875 265.027344 192.472656 C 259.015625 192.589844 252.992188 192.589844 246.960938 192.472656 C 244.386719 192.425781 243.105469 190.875 243.097656 188.238281 C 243.074219 181.941406 243.074219 175.648438 243.097656 169.363281 Z M 206.21875 169.414062 C 206.1875 169.136719 206.1875 168.855469 206.21875 168.578125 C 206.25 168.296875 206.3125 168.027344 206.40625 167.761719 C 206.496094 167.496094 206.617188 167.242188 206.765625 167.003906 C 206.914062 166.765625 207.085938 166.546875 207.285156 166.34375 C 207.480469 166.144531 207.699219 165.96875 207.9375 165.816406 C 208.171875 165.664062 208.421875 165.542969 208.6875 165.445312 C 208.953125 165.351562 209.222656 165.285156 209.503906 165.25 C 209.78125 165.214844 210.0625 165.210938 210.339844 165.238281 C 216.238281 165.191406 222.136719 165.191406 228.035156 165.238281 C 228.308594 165.214844 228.578125 165.21875 228.851562 165.253906 C 229.121094 165.289062 229.386719 165.355469 229.644531 165.445312 C 229.898438 165.539062 230.144531 165.660156 230.375 165.808594 C 230.605469 165.953125 230.816406 166.125 231.011719 166.320312 C 231.203125 166.511719 231.375 166.726562 231.519531 166.957031 C 231.667969 167.1875 231.785156 167.433594 231.878906 167.6875 C 231.96875 167.945312 232.035156 168.210938 232.066406 168.484375 C 232.101562 168.753906 232.105469 169.027344 232.082031 169.296875 C 232.132812 175.652344 232.132812 182.003906 232.082031 188.359375 C 232.109375 188.632812 232.105469 188.90625 232.074219 189.175781 C 232.039062 189.449219 231.980469 189.71875 231.886719 189.976562 C 231.796875 190.234375 231.679688 190.480469 231.535156 190.714844 C 231.390625 190.949219 231.222656 191.164062 231.027344 191.359375 C 230.835938 191.558594 230.625 191.730469 230.394531 191.882812 C 230.164062 192.03125 229.921875 192.15625 229.664062 192.25 C 229.40625 192.347656 229.140625 192.414062 228.871094 192.453125 C 228.597656 192.492188 228.324219 192.5 228.050781 192.480469 C 222.15625 192.578125 216.261719 192.578125 210.363281 192.480469 C 210.074219 192.503906 209.785156 192.496094 209.5 192.453125 C 209.210938 192.414062 208.933594 192.339844 208.660156 192.234375 C 208.390625 192.132812 208.132812 192 207.894531 191.835938 C 207.652344 191.675781 207.433594 191.488281 207.234375 191.277344 C 207.035156 191.066406 206.859375 190.835938 206.714844 190.585938 C 206.566406 190.335938 206.449219 190.070312 206.363281 189.792969 C 206.273438 189.515625 206.21875 189.234375 206.195312 188.945312 C 206.167969 188.65625 206.179688 188.367188 206.21875 188.078125 C 206.199219 185 206.21875 181.921875 206.21875 178.839844 C 206.210938 175.695312 206.1875 172.550781 206.21875 169.40625 Z M 142.859375 175 C 142.878906 172.160156 144.167969 170.570312 146.917969 170.519531 C 152.808594 170.410156 158.703125 170.410156 164.605469 170.519531 C 164.886719 170.496094 165.167969 170.5 165.445312 170.539062 C 165.726562 170.578125 166 170.644531 166.265625 170.746094 C 166.53125 170.84375 166.78125 170.972656 167.015625 171.125 C 167.253906 171.28125 167.46875 171.460938 167.667969 171.664062 C 167.863281 171.867188 168.035156 172.089844 168.179688 172.332031 C 168.324219 172.574219 168.445312 172.832031 168.53125 173.101562 C 168.621094 173.367188 168.679688 173.644531 168.707031 173.925781 C 168.734375 174.207031 168.730469 174.488281 168.691406 174.769531 C 168.734375 181.054688 168.734375 187.34375 168.691406 193.628906 C 168.726562 193.910156 168.726562 194.191406 168.695312 194.472656 C 168.664062 194.753906 168.601562 195.027344 168.511719 195.292969 C 168.417969 195.5625 168.296875 195.8125 168.144531 196.054688 C 167.996094 196.292969 167.820312 196.511719 167.621094 196.710938 C 167.421875 196.910156 167.199219 197.085938 166.960938 197.234375 C 166.722656 197.386719 166.46875 197.507812 166.203125 197.601562 C 165.933594 197.691406 165.660156 197.753906 165.378906 197.785156 C 165.097656 197.8125 164.820312 197.8125 164.539062 197.78125 C 158.710938 197.84375 152.882812 197.84375 147.046875 197.78125 C 146.761719 197.8125 146.472656 197.8125 146.183594 197.78125 C 145.894531 197.75 145.613281 197.683594 145.339844 197.585938 C 145.066406 197.488281 144.808594 197.363281 144.566406 197.207031 C 144.320312 197.050781 144.097656 196.867188 143.894531 196.660156 C 143.695312 196.449219 143.519531 196.222656 143.367188 195.972656 C 143.21875 195.722656 143.101562 195.460938 143.011719 195.1875 C 142.921875 194.910156 142.867188 194.628906 142.839844 194.339844 C 142.816406 194.050781 142.828125 193.761719 142.867188 193.472656 C 142.84375 190.332031 142.855469 187.183594 142.855469 184.042969 C 142.855469 181.023438 142.84375 178.011719 142.859375 175 Z M 142.859375 96.484375 C 142.859375 93.4375 144.214844 92.039062 147.289062 92.015625 C 152.988281 91.972656 158.6875 91.972656 164.382812 92.015625 C 167.324219 92.042969 168.667969 93.460938 168.703125 96.40625 C 168.730469 99.488281 168.703125 102.5625 168.703125 105.640625 C 168.703125 108.714844 168.730469 111.796875 168.703125 114.875 C 168.742188 115.171875 168.75 115.46875 168.722656 115.765625 C 168.695312 116.066406 168.636719 116.355469 168.542969 116.640625 C 168.449219 116.925781 168.324219 117.195312 168.167969 117.449219 C 168.011719 117.707031 167.828125 117.941406 167.617188 118.152344 C 167.410156 118.367188 167.179688 118.554688 166.925781 118.714844 C 166.671875 118.875 166.402344 119.003906 166.121094 119.101562 C 165.839844 119.199219 165.546875 119.265625 165.25 119.296875 C 164.953125 119.328125 164.65625 119.328125 164.359375 119.289062 C 158.664062 119.367188 152.96875 119.367188 147.269531 119.289062 C 146.964844 119.328125 146.660156 119.332031 146.355469 119.300781 C 146.050781 119.269531 145.753906 119.203125 145.460938 119.101562 C 145.171875 119 144.898438 118.867188 144.640625 118.703125 C 144.382812 118.539062 144.144531 118.34375 143.929688 118.125 C 143.71875 117.90625 143.53125 117.664062 143.375 117.398438 C 143.214844 117.136719 143.089844 116.859375 143 116.566406 C 142.90625 116.273438 142.847656 115.976562 142.824219 115.667969 C 142.800781 115.363281 142.8125 115.058594 142.859375 114.753906 C 142.851562 108.664062 142.851562 102.578125 142.859375 96.492188 Z M 142.859375 135.457031 C 142.824219 135.191406 142.816406 134.929688 142.835938 134.664062 C 142.859375 134.398438 142.90625 134.140625 142.984375 133.882812 C 143.0625 133.628906 143.167969 133.386719 143.296875 133.15625 C 143.429688 132.925781 143.582031 132.710938 143.761719 132.511719 C 143.9375 132.316406 144.132812 132.136719 144.351562 131.984375 C 144.566406 131.828125 144.796875 131.699219 145.042969 131.59375 C 145.285156 131.492188 145.539062 131.414062 145.800781 131.367188 C 146.0625 131.316406 146.324219 131.296875 146.589844 131.304688 C 152.6875 131.167969 158.777344 131.160156 164.867188 131.289062 C 165.132812 131.273438 165.398438 131.289062 165.660156 131.332031 C 165.925781 131.375 166.179688 131.445312 166.425781 131.542969 C 166.675781 131.644531 166.90625 131.769531 167.128906 131.917969 C 167.347656 132.070312 167.546875 132.242188 167.730469 132.4375 C 167.910156 132.632812 168.070312 132.84375 168.207031 133.074219 C 168.339844 133.304688 168.449219 133.546875 168.53125 133.800781 C 168.613281 134.054688 168.664062 134.3125 168.691406 134.578125 C 168.714844 134.84375 168.710938 135.109375 168.675781 135.375 C 168.726562 141.726562 168.726562 148.082031 168.675781 154.433594 C 168.707031 154.699219 168.710938 154.964844 168.6875 155.230469 C 168.660156 155.496094 168.605469 155.753906 168.523438 156.007812 C 168.4375 156.261719 168.328125 156.503906 168.195312 156.730469 C 168.058594 156.960938 167.898438 157.171875 167.714844 157.367188 C 167.535156 157.5625 167.332031 157.734375 167.113281 157.882812 C 166.890625 158.03125 166.660156 158.15625 166.410156 158.253906 C 166.164062 158.355469 165.90625 158.425781 165.644531 158.46875 C 165.382812 158.511719 165.117188 158.523438 164.851562 158.507812 C 158.828125 158.632812 152.804688 158.632812 146.777344 158.507812 C 144.097656 158.453125 142.871094 156.878906 142.859375 154.121094 C 142.84375 151.042969 142.859375 147.960938 142.859375 144.882812 C 142.855469 141.746094 142.835938 138.601562 142.867188 135.449219 Z M 105.984375 96.523438 C 106 93.460938 107.363281 92.042969 110.40625 92.015625 C 116.113281 91.972656 121.816406 91.972656 127.515625 92.015625 C 130.539062 92.039062 131.890625 93.492188 131.902344 96.550781 C 131.917969 99.5625 131.902344 102.574219 131.902344 105.585938 C 131.902344 108.667969 131.929688 111.746094 131.902344 114.828125 C 131.945312 115.125 131.949219 115.421875 131.925781 115.71875 C 131.898438 116.015625 131.835938 116.304688 131.746094 116.589844 C 131.652344 116.875 131.527344 117.144531 131.375 117.398438 C 131.21875 117.65625 131.039062 117.890625 130.828125 118.105469 C 130.621094 118.320312 130.390625 118.507812 130.140625 118.671875 C 129.890625 118.832031 129.625 118.964844 129.34375 119.066406 C 129.0625 119.167969 128.773438 119.238281 128.476562 119.273438 C 128.179688 119.3125 127.882812 119.3125 127.585938 119.28125 C 121.816406 119.363281 116.050781 119.363281 110.292969 119.28125 C 109.996094 119.3125 109.699219 119.308594 109.402344 119.269531 C 109.105469 119.234375 108.8125 119.164062 108.535156 119.058594 C 108.253906 118.957031 107.984375 118.820312 107.734375 118.65625 C 107.484375 118.492188 107.257812 118.300781 107.050781 118.085938 C 106.84375 117.871094 106.664062 117.632812 106.507812 117.375 C 106.355469 117.117188 106.234375 116.84375 106.144531 116.558594 C 106.054688 116.273438 105.996094 115.980469 105.972656 115.683594 C 105.945312 115.382812 105.957031 115.085938 106 114.789062 C 105.964844 108.703125 105.960938 102.613281 105.984375 96.523438 Z M 105.984375 174.816406 C 105.949219 174.539062 105.941406 174.257812 105.96875 173.976562 C 105.996094 173.691406 106.050781 173.417969 106.140625 173.148438 C 106.226562 172.878906 106.34375 172.625 106.488281 172.378906 C 106.632812 172.136719 106.800781 171.914062 106.996094 171.707031 C 107.191406 171.5 107.40625 171.320312 107.640625 171.160156 C 107.875 171.003906 108.125 170.875 108.390625 170.773438 C 108.652344 170.667969 108.925781 170.597656 109.207031 170.554688 C 109.484375 170.515625 109.765625 170.503906 110.046875 170.523438 C 115.949219 170.414062 121.84375 170.414062 127.734375 170.523438 C 128.027344 170.503906 128.316406 170.511719 128.601562 170.554688 C 128.890625 170.597656 129.171875 170.671875 129.441406 170.777344 C 129.714844 170.882812 129.96875 171.015625 130.210938 171.179688 C 130.453125 171.339844 130.671875 171.527344 130.871094 171.742188 C 131.070312 171.953125 131.242188 172.1875 131.390625 172.4375 C 131.535156 172.6875 131.652344 172.953125 131.738281 173.230469 C 131.828125 173.507812 131.882812 173.792969 131.90625 174.082031 C 131.929688 174.371094 131.921875 174.660156 131.878906 174.949219 C 131.910156 178.027344 131.878906 181.105469 131.878906 184.183594 C 131.878906 187.261719 131.902344 190.34375 131.878906 193.421875 C 131.921875 193.710938 131.929688 193.996094 131.90625 194.285156 C 131.882812 194.574219 131.824219 194.855469 131.738281 195.132812 C 131.648438 195.410156 131.53125 195.671875 131.382812 195.921875 C 131.234375 196.171875 131.058594 196.398438 130.859375 196.609375 C 130.660156 196.820312 130.4375 197.003906 130.195312 197.164062 C 129.953125 197.320312 129.699219 197.453125 129.425781 197.550781 C 129.152344 197.652344 128.875 197.722656 128.585938 197.757812 C 128.300781 197.796875 128.011719 197.800781 127.722656 197.773438 C 121.886719 197.84375 116.054688 197.84375 110.230469 197.773438 C 109.941406 197.808594 109.652344 197.808594 109.363281 197.78125 C 109.070312 197.75 108.789062 197.6875 108.515625 197.589844 C 108.238281 197.496094 107.976562 197.371094 107.730469 197.214844 C 107.484375 197.0625 107.257812 196.878906 107.054688 196.671875 C 106.851562 196.464844 106.671875 196.238281 106.519531 195.988281 C 106.367188 195.742188 106.242188 195.480469 106.152344 195.203125 C 106.058594 194.925781 106 194.644531 105.972656 194.355469 C 105.941406 194.0625 105.949219 193.773438 105.988281 193.488281 C 105.949219 187.265625 105.949219 181.042969 105.992188 174.816406 Z M 131.894531 271.777344 C 131.871094 274.800781 130.453125 276.3125 127.484375 276.324219 C 121.789062 276.355469 116.085938 276.355469 110.378906 276.324219 C 110.082031 276.363281 109.785156 276.367188 109.488281 276.339844 C 109.191406 276.308594 108.902344 276.246094 108.617188 276.152344 C 108.335938 276.054688 108.066406 275.929688 107.8125 275.773438 C 107.558594 275.613281 107.324219 275.429688 107.113281 275.21875 C 106.902344 275.011719 106.714844 274.777344 106.558594 274.527344 C 106.398438 274.273438 106.269531 274.003906 106.171875 273.722656 C 106.074219 273.441406 106.011719 273.152344 105.976562 272.855469 C 105.945312 272.558594 105.949219 272.261719 105.984375 271.964844 C 105.945312 265.742188 105.945312 259.515625 105.984375 253.292969 C 105.953125 253.003906 105.957031 252.714844 105.992188 252.425781 C 106.027344 252.136719 106.09375 251.855469 106.191406 251.582031 C 106.289062 251.308594 106.414062 251.050781 106.570312 250.804688 C 106.726562 250.5625 106.910156 250.335938 107.117188 250.132812 C 107.324219 249.929688 107.550781 249.753906 107.800781 249.601562 C 108.046875 249.449219 108.308594 249.328125 108.585938 249.234375 C 108.859375 249.140625 109.140625 249.082031 109.429688 249.050781 C 109.71875 249.023438 110.007812 249.027344 110.296875 249.0625 C 116.054688 249.03125 121.820312 249.03125 127.585938 249.0625 C 127.882812 249.03125 128.179688 249.03125 128.476562 249.066406 C 128.773438 249.101562 129.0625 249.167969 129.339844 249.269531 C 129.621094 249.367188 129.886719 249.5 130.140625 249.660156 C 130.390625 249.824219 130.617188 250.011719 130.828125 250.226562 C 131.035156 250.4375 131.214844 250.671875 131.367188 250.929688 C 131.523438 251.183594 131.644531 251.453125 131.738281 251.738281 C 131.828125 252.019531 131.886719 252.3125 131.914062 252.609375 C 131.941406 252.90625 131.929688 253.203125 131.890625 253.496094 C 131.90625 256.578125 131.890625 259.652344 131.890625 262.734375 C 131.894531 265.75 131.910156 268.761719 131.894531 271.777344 Z M 131.894531 232.582031 C 131.941406 232.882812 131.953125 233.1875 131.925781 233.496094 C 131.902344 233.800781 131.839844 234.101562 131.742188 234.390625 C 131.648438 234.683594 131.519531 234.960938 131.359375 235.222656 C 131.199219 235.484375 131.007812 235.722656 130.792969 235.941406 C 130.574219 236.15625 130.335938 236.34375 130.074219 236.507812 C 129.8125 236.667969 129.535156 236.796875 129.242188 236.890625 C 128.953125 236.988281 128.652344 237.046875 128.347656 237.074219 C 128.039062 237.097656 127.734375 237.085938 127.433594 237.042969 C 121.734375 237.070312 116.03125 237.070312 110.324219 237.042969 C 110.027344 237.078125 109.730469 237.082031 109.433594 237.050781 C 109.136719 237.019531 108.847656 236.957031 108.566406 236.859375 C 108.285156 236.761719 108.015625 236.632812 107.765625 236.472656 C 107.511719 236.316406 107.28125 236.128906 107.070312 235.917969 C 106.859375 235.703125 106.679688 235.472656 106.523438 235.21875 C 106.367188 234.960938 106.242188 234.695312 106.148438 234.410156 C 106.050781 234.128906 105.992188 233.835938 105.964844 233.539062 C 105.9375 233.242188 105.941406 232.945312 105.984375 232.652344 C 105.949219 229.574219 105.984375 226.492188 105.984375 223.417969 C 105.984375 220.339844 105.960938 217.257812 105.984375 214.183594 C 105.945312 213.886719 105.945312 213.589844 105.972656 213.292969 C 106.003906 212.996094 106.066406 212.703125 106.164062 212.421875 C 106.261719 212.136719 106.386719 211.871094 106.546875 211.617188 C 106.703125 211.363281 106.886719 211.128906 107.097656 210.917969 C 107.308594 210.707031 107.542969 210.519531 107.792969 210.359375 C 108.046875 210.203125 108.316406 210.074219 108.597656 209.972656 C 108.878906 209.875 109.167969 209.8125 109.464844 209.777344 C 109.765625 209.746094 110.0625 209.75 110.359375 209.785156 C 116.058594 209.738281 121.761719 209.738281 127.464844 209.785156 C 127.769531 209.742188 128.078125 209.738281 128.382812 209.769531 C 128.6875 209.800781 128.988281 209.867188 129.277344 209.96875 C 129.570312 210.070312 129.84375 210.203125 130.105469 210.367188 C 130.363281 210.53125 130.601562 210.722656 130.816406 210.941406 C 131.03125 211.164062 131.21875 211.40625 131.378906 211.667969 C 131.539062 211.929688 131.664062 212.210938 131.757812 212.503906 C 131.855469 212.796875 131.914062 213.09375 131.9375 213.402344 C 131.960938 213.707031 131.953125 214.015625 131.90625 214.320312 C 131.914062 220.40625 131.910156 226.492188 131.886719 232.582031 Z M 131.894531 154.234375 C 131.933594 154.503906 131.945312 154.777344 131.921875 155.050781 C 131.902344 155.324219 131.851562 155.59375 131.773438 155.855469 C 131.691406 156.121094 131.585938 156.371094 131.449219 156.609375 C 131.3125 156.847656 131.15625 157.070312 130.96875 157.273438 C 130.785156 157.476562 130.582031 157.660156 130.359375 157.816406 C 130.132812 157.976562 129.894531 158.109375 129.640625 158.214844 C 129.386719 158.320312 129.125 158.398438 128.855469 158.445312 C 128.585938 158.492188 128.3125 158.511719 128.039062 158.5 C 122.015625 158.636719 115.988281 158.644531 109.957031 158.515625 C 107.292969 158.464844 106.023438 156.867188 105.992188 154.128906 C 105.960938 150.988281 105.992188 147.84375 105.992188 144.699219 C 105.992188 141.683594 105.96875 138.671875 105.992188 135.65625 C 105.949219 135.371094 105.941406 135.082031 105.964844 134.789062 C 105.988281 134.5 106.042969 134.214844 106.132812 133.9375 C 106.21875 133.660156 106.335938 133.394531 106.484375 133.144531 C 106.632812 132.894531 106.804688 132.660156 107.007812 132.449219 C 107.207031 132.238281 107.425781 132.050781 107.667969 131.890625 C 107.914062 131.730469 108.167969 131.597656 108.441406 131.492188 C 108.714844 131.390625 108.996094 131.316406 109.285156 131.277344 C 109.570312 131.238281 109.863281 131.230469 110.152344 131.257812 C 116.046875 131.15625 121.945312 131.15625 127.84375 131.257812 C 128.125 131.234375 128.40625 131.246094 128.6875 131.289062 C 128.964844 131.328125 129.238281 131.402344 129.5 131.503906 C 129.765625 131.605469 130.015625 131.734375 130.25 131.894531 C 130.484375 132.050781 130.699219 132.234375 130.894531 132.4375 C 131.085938 132.644531 131.253906 132.871094 131.398438 133.113281 C 131.542969 133.355469 131.660156 133.613281 131.746094 133.882812 C 131.832031 134.152344 131.886719 134.425781 131.914062 134.710938 C 131.9375 134.992188 131.933594 135.273438 131.894531 135.554688 C 131.921875 141.78125 131.917969 148.007812 131.886719 154.234375 Z M 168.691406 272.148438 C 168.722656 272.425781 168.722656 272.707031 168.691406 272.988281 C 168.65625 273.269531 168.59375 273.542969 168.5 273.808594 C 168.40625 274.074219 168.285156 274.328125 168.136719 274.566406 C 167.984375 274.804688 167.808594 275.023438 167.609375 275.222656 C 167.410156 275.425781 167.191406 275.597656 166.953125 275.75 C 166.714844 275.902344 166.464844 276.023438 166.199219 276.117188 C 165.933594 276.214844 165.660156 276.277344 165.378906 276.308594 C 165.097656 276.34375 164.820312 276.347656 164.539062 276.316406 C 158.710938 276.367188 152.882812 276.367188 147.046875 276.316406 C 146.761719 276.34375 146.472656 276.339844 146.1875 276.304688 C 145.898438 276.269531 145.617188 276.199219 145.347656 276.101562 C 145.074219 276 144.816406 275.871094 144.574219 275.714844 C 144.332031 275.554688 144.109375 275.371094 143.910156 275.164062 C 143.707031 274.957031 143.53125 274.726562 143.382812 274.480469 C 143.230469 274.234375 143.113281 273.972656 143.019531 273.695312 C 142.929688 273.421875 142.871094 273.140625 142.84375 272.851562 C 142.816406 272.5625 142.824219 272.273438 142.859375 271.988281 C 142.84375 268.84375 142.859375 265.699219 142.859375 262.554688 C 142.859375 259.480469 142.847656 256.402344 142.871094 253.320312 C 142.835938 253.035156 142.835938 252.746094 142.863281 252.460938 C 142.894531 252.171875 142.957031 251.890625 143.050781 251.617188 C 143.144531 251.34375 143.269531 251.082031 143.421875 250.835938 C 143.574219 250.589844 143.753906 250.367188 143.957031 250.160156 C 144.164062 249.957031 144.386719 249.777344 144.632812 249.621094 C 144.878906 249.46875 145.140625 249.34375 145.414062 249.25 C 145.6875 249.15625 145.96875 249.09375 146.253906 249.0625 C 146.542969 249.03125 146.832031 249.035156 147.117188 249.070312 C 152.878906 249.039062 158.644531 249.039062 164.410156 249.070312 C 164.699219 249.03125 164.984375 249.027344 165.273438 249.054688 C 165.5625 249.082031 165.84375 249.140625 166.121094 249.234375 C 166.394531 249.324219 166.65625 249.445312 166.90625 249.597656 C 167.152344 249.75 167.378906 249.925781 167.585938 250.128906 C 167.792969 250.335938 167.972656 250.558594 168.128906 250.804688 C 168.285156 251.046875 168.410156 251.308594 168.507812 251.582031 C 168.605469 251.855469 168.667969 252.136719 168.699219 252.425781 C 168.730469 252.710938 168.730469 253 168.695312 253.289062 C 168.742188 259.574219 168.742188 265.859375 168.691406 272.148438 Z M 168.691406 232.828125 C 168.726562 233.117188 168.726562 233.402344 168.695312 233.691406 C 168.664062 233.980469 168.601562 234.261719 168.503906 234.535156 C 168.410156 234.808594 168.28125 235.066406 168.125 235.3125 C 167.972656 235.558594 167.789062 235.78125 167.582031 235.984375 C 167.375 236.1875 167.148438 236.363281 166.902344 236.515625 C 166.652344 236.667969 166.390625 236.789062 166.117188 236.878906 C 165.839844 236.972656 165.558594 237.03125 165.269531 237.054688 C 164.980469 237.082031 164.691406 237.078125 164.40625 237.035156 C 158.632812 237.066406 152.871094 237.066406 147.113281 237.035156 C 146.828125 237.074219 146.539062 237.078125 146.25 237.046875 C 145.960938 237.019531 145.679688 236.957031 145.40625 236.863281 C 145.132812 236.769531 144.871094 236.644531 144.625 236.492188 C 144.378906 236.339844 144.15625 236.160156 143.949219 235.953125 C 143.746094 235.75 143.566406 235.523438 143.414062 235.277344 C 143.257812 235.03125 143.136719 234.769531 143.042969 234.496094 C 142.949219 234.222656 142.886719 233.941406 142.859375 233.652344 C 142.828125 233.363281 142.832031 233.078125 142.867188 232.789062 C 142.84375 229.644531 142.855469 226.503906 142.855469 223.355469 C 142.855469 220.210938 142.835938 217.070312 142.867188 213.925781 C 142.839844 213.652344 142.84375 213.382812 142.875 213.109375 C 142.90625 212.839844 142.964844 212.574219 143.054688 212.316406 C 143.144531 212.058594 143.257812 211.8125 143.402344 211.582031 C 143.546875 211.347656 143.710938 211.132812 143.902344 210.9375 C 144.089844 210.742188 144.300781 210.566406 144.527344 210.417969 C 144.753906 210.265625 144.996094 210.140625 145.25 210.042969 C 145.503906 209.945312 145.765625 209.875 146.039062 209.835938 C 146.308594 209.796875 146.578125 209.785156 146.851562 209.800781 C 152.816406 209.722656 158.777344 209.722656 164.734375 209.800781 C 165.007812 209.785156 165.28125 209.796875 165.550781 209.835938 C 165.820312 209.878906 166.085938 209.949219 166.339844 210.050781 C 166.59375 210.148438 166.835938 210.277344 167.066406 210.429688 C 167.292969 210.582031 167.5 210.757812 167.691406 210.957031 C 167.878906 211.15625 168.042969 211.371094 168.183594 211.605469 C 168.324219 211.839844 168.441406 212.089844 168.527344 212.347656 C 168.613281 212.609375 168.671875 212.875 168.699219 213.148438 C 168.726562 213.421875 168.726562 213.695312 168.691406 213.964844 C 168.742188 220.253906 168.742188 226.542969 168.691406 232.828125 Z M 113.835938 139.074219 L 124.027344 139.074219 L 124.027344 150.734375 L 113.835938 150.734375 Z M 124.191406 189.996094 L 113.886719 189.996094 L 113.886719 178.230469 C 117.027344 178.230469 120.199219 178.199219 123.367188 178.277344 C 123.652344 178.277344 124.15625 178.957031 124.160156 179.328125 C 124.21875 182.84375 124.191406 186.359375 124.191406 189.996094 Z M 160.925781 189.996094 L 150.617188 189.996094 L 150.617188 178.34375 L 160.925781 178.34375 Z M 160.871094 150.765625 L 150.636719 150.765625 L 150.636719 139.105469 L 160.871094 139.105469 Z M 113.84375 111.578125 L 113.84375 99.792969 L 124.191406 99.792969 C 124.191406 103.441406 124.222656 106.960938 124.148438 110.480469 C 124.011719 111.015625 123.675781 111.363281 123.148438 111.527344 C 120.097656 111.617188 117.035156 111.578125 113.84375 111.578125 Z M 113.824219 256.804688 L 124.027344 256.804688 L 124.027344 268.570312 L 113.824219 268.570312 Z M 124.152344 218.46875 C 124.214844 222.042969 124.191406 225.617188 124.191406 229.304688 L 113.820312 229.304688 L 113.820312 217.433594 C 117.042969 217.433594 120.164062 217.402344 123.277344 217.476562 C 123.601562 217.484375 124.144531 218.117188 124.152344 218.464844 Z M 160.933594 111.4375 L 150.625 111.4375 L 150.625 99.816406 L 160.933594 99.816406 Z M 150.625 256.789062 L 160.832031 256.789062 L 160.832031 268.554688 L 150.636719 268.554688 Z M 150.652344 217.566406 L 160.871094 217.566406 L 160.871094 229.316406 L 150.660156 229.316406 Z M 224.214844 263.144531 L 213.957031 263.144531 L 213.957031 251.601562 L 224.214844 251.601562 Z M 224.230469 223.882812 L 213.945312 223.882812 L 213.945312 212.300781 L 224.230469 212.300781 Z M 224.261719 184.691406 L 213.984375 184.691406 L 213.984375 172.976562 L 224.261719 172.976562 Z M 250.871094 251.492188 L 261.117188 251.492188 L 261.117188 263.171875 L 250.871094 263.171875 Z M 250.871094 212.234375 L 261.132812 212.234375 L 261.132812 223.90625 L 250.863281 223.90625 Z M 261.179688 184.660156 L 250.871094 184.660156 L 250.871094 172.984375 L 261.179688 172.984375 Z M 261.179688 184.660156 " fill-opacity="1" fill-rule="nonzero"/></g></svg>