<svg xmlns="http://www.w3.org/2000/svg" xmlns:xlink="http://www.w3.org/1999/xlink" width="500" zoomAndPan="magnify" viewBox="0 0 375 374.999991" height="500" preserveAspectRatio="xMidYMid meet" version="1.0"><defs><clipPath id="c9320a7e77"><path d="M 266 27.4375 L 270 27.4375 L 270 51 L 266 51 Z M 266 27.4375 " clip-rule="nonzero"/></clipPath><clipPath id="283073ef5f"><path d="M 263 53 L 304.65625 53 L 304.65625 106 L 263 106 Z M 263 53 " clip-rule="nonzero"/></clipPath><clipPath id="e52b351a5a"><path d="M 71 82 L 268 82 L 268 347.6875 L 71 347.6875 Z M 71 82 " clip-rule="nonzero"/></clipPath></defs><path fill="#a6a6a6" d="M 222.964844 81.039062 L 222.964844 49.714844 L 220.386719 49.714844 L 220.386719 90.828125 C 220.859375 88.082031 221.550781 85.285156 222.488281 82.472656 Z M 222.964844 81.039062 " fill-opacity="1" fill-rule="nonzero"/><path fill="#a6a6a6" d="M 273.507812 118.238281 L 276.085938 118.238281 L 276.085938 109.523438 L 273.507812 109.5625 Z M 273.507812 118.238281 " fill-opacity="1" fill-rule="nonzero"/><path fill="#a6a6a6" d="M 276.085938 40.773438 L 273.507812 40.773438 L 273.507812 50.796875 L 276.085938 51.132812 Z M 276.085938 40.773438 " fill-opacity="1" fill-rule="nonzero"/><g clip-path="url(#c9320a7e77)"><path fill="#a6a6a6" d="M 269.277344 27.4375 L 266.699219 27.4375 L 266.699219 49.898438 L 269.277344 50.238281 Z M 269.277344 27.4375 " fill-opacity="1" fill-rule="nonzero"/></g><path fill="#a6a6a6" d="M 266.699219 124.835938 L 269.277344 124.835938 L 269.277344 109.632812 L 266.699219 109.671875 Z M 266.699219 124.835938 " fill-opacity="1" fill-rule="nonzero"/><g clip-path="url(#283073ef5f)"><path fill="#a6a6a6" d="M 266.699219 59.835938 L 269.277344 59.835938 L 269.277344 92.628906 L 272.328125 93.648438 L 270.699219 98.535156 C 269.898438 100.941406 268.945312 103.222656 267.886719 105.398438 L 273.507812 105.308594 L 273.507812 76.71875 L 276.085938 76.71875 L 276.085938 105.269531 L 283.792969 105.144531 L 283.804688 104.953125 L 289.90625 103.960938 L 290.050781 102.683594 L 293.453125 100.414062 L 295.296875 99.84375 L 295.722656 97.292969 L 296.574219 95.445312 L 298.574219 94.445312 L 304.195312 73.800781 L 298.925781 64.734375 L 296.859375 64.871094 L 295.15625 62.316406 L 291.75 62.957031 L 289.410156 60.617188 L 284.941406 59.550781 L 284.765625 56.566406 L 263.09375 53.714844 L 263.09375 90.570312 L 266.699219 91.769531 Z M 266.699219 59.835938 " fill-opacity="1" fill-rule="nonzero"/></g><path fill="#a6a6a6" d="M 165.363281 155.960938 L 164.828125 158.617188 L 172.46875 162.898438 C 172 161.660156 171.496094 160.390625 170.957031 159.09375 Z M 165.363281 155.960938 " fill-opacity="1" fill-rule="nonzero"/><path fill="#a6a6a6" d="M 166.9375 111.628906 L 168.957031 109.957031 L 172.890625 112.160156 C 172.488281 112.546875 171.847656 113.183594 171.082031 114.007812 C 171.796875 114.488281 172.5 114.996094 173.191406 115.535156 C 173.898438 114.777344 174.542969 114.136719 175.011719 113.699219 L 174.328125 112.964844 L 200.792969 127.792969 L 198.519531 131.304688 L 193.136719 133.613281 L 188.210938 133.847656 C 188.695312 134.683594 189.164062 135.519531 189.621094 136.359375 L 193.722656 136.164062 L 200.257812 133.363281 L 203.046875 129.054688 L 207.054688 131.300781 L 192.945312 142.980469 C 193.261719 143.664062 193.578125 144.351562 193.878906 145.023438 L 196.792969 143.144531 L 211.59375 130.890625 L 168.675781 106.84375 L 164.234375 110.519531 C 164.414062 110.574219 164.59375 110.632812 164.765625 110.695312 C 165.503906 110.96875 166.222656 111.289062 166.9375 111.628906 Z M 166.9375 111.628906 " fill-opacity="1" fill-rule="nonzero"/><path fill="#a6a6a6" d="M 246.90625 131.71875 L 249.484375 131.71875 L 249.484375 125.019531 C 248.632812 125.40625 247.769531 125.726562 246.90625 126.011719 Z M 246.90625 131.71875 " fill-opacity="1" fill-rule="nonzero"/><path fill="#a6a6a6" d="M 246.90625 85.175781 L 249.484375 86.035156 L 249.484375 43.042969 L 246.90625 43.042969 Z M 246.90625 85.175781 " fill-opacity="1" fill-rule="nonzero"/><path fill="#a6a6a6" d="M 241.125 60.757812 L 238.546875 60.757812 L 238.546875 82.390625 L 241.125 83.25 Z M 241.125 60.757812 " fill-opacity="1" fill-rule="nonzero"/><path fill="#a6a6a6" d="M 255.007812 135.125 L 257.582031 135.125 L 257.582031 119.535156 C 256.742188 120.304688 255.882812 121.011719 255.007812 121.671875 Z M 255.007812 135.125 " fill-opacity="1" fill-rule="nonzero"/><path fill="#a6a6a6" d="M 255.007812 87.875 L 257.582031 88.734375 L 257.582031 37.652344 L 255.007812 37.652344 Z M 255.007812 87.875 " fill-opacity="1" fill-rule="nonzero"/><path fill="#a6a6a6" d="M 231.960938 36.246094 L 229.382812 36.246094 L 229.382812 79.335938 L 231.960938 80.195312 Z M 231.960938 36.246094 " fill-opacity="1" fill-rule="nonzero"/><g clip-path="url(#e52b351a5a)"><path fill="#a6a6a6" d="M 237.96875 144.613281 C 242.753906 141.523438 244.125 135.140625 241.035156 130.355469 C 240.433594 129.429688 239.707031 128.632812 238.894531 127.96875 L 240.484375 123.203125 C 250.722656 123.167969 261.925781 112.636719 267.03125 97.316406 L 267.4375 96.09375 L 226.5625 82.472656 L 226.15625 83.695312 C 223.34375 92.136719 222.757812 100.777344 224.507812 108.027344 C 225.832031 113.527344 228.386719 117.753906 231.863281 120.34375 L 230.003906 125.929688 C 228.890625 126.191406 227.796875 126.636719 226.78125 127.292969 L 192.542969 149.417969 C 187.199219 136.546875 177.542969 118.628906 163.730469 113.472656 C 163.265625 113.300781 162.796875 113.175781 162.324219 113.070312 C 161.878906 112.910156 161.421875 112.769531 160.941406 112.671875 L 112.140625 102.792969 C 110.894531 102.539062 109.660156 102.542969 108.480469 102.746094 C 105.824219 102.996094 102.46875 103.984375 98.71875 106.578125 C 90.5625 112.21875 80.53125 125.488281 71.734375 155.523438 C 70.796875 158.726562 71.464844 162.183594 73.53125 164.804688 C 75.492188 167.292969 78.480469 168.734375 81.625 168.734375 C 81.796875 168.734375 81.964844 168.730469 82.132812 168.71875 L 85.644531 168.546875 L 90.523438 144.441406 L 93.433594 145 L 82.914062 196.964844 C 82.816406 197.449219 82.769531 197.929688 82.742188 198.410156 C 82.582031 199.320312 82.480469 200.253906 82.480469 201.210938 L 82.480469 331.652344 C 82.480469 340.457031 89.617188 347.585938 98.414062 347.585938 C 107.214844 347.585938 114.347656 340.457031 114.347656 331.652344 L 114.347656 213.492188 L 120.320312 214.703125 L 120.320312 331.652344 C 120.320312 340.457031 127.457031 347.585938 136.253906 347.585938 C 145.054688 347.585938 152.191406 340.457031 152.191406 331.652344 L 152.191406 206.089844 L 165.25 141.59375 C 170.226562 149.144531 174.898438 159.90625 177.390625 168.09375 C 178.328125 171.191406 180.667969 173.671875 183.707031 174.789062 C 184.859375 175.210938 186.0625 175.417969 187.257812 175.417969 C 189.21875 175.417969 191.164062 174.859375 192.851562 173.769531 L 220.078125 156.175781 C 219.988281 157.257812 220.292969 158.3125 220.902344 159.167969 C 221.441406 159.925781 222.207031 160.53125 223.152344 160.847656 C 225.53125 161.640625 228.105469 160.355469 228.898438 157.976562 L 230.582031 152.914062 L 232.082031 148.417969 Z M 264.164062 97.71875 C 263.753906 98.847656 263.308594 99.941406 262.839844 101.007812 C 261.621094 100.789062 258.886719 100.210938 255.300781 98.917969 C 253.222656 98.167969 242.675781 94.445312 238.917969 95.023438 C 237.492188 95.242188 236.550781 94.429688 235.140625 93.082031 C 234.707031 92.667969 234.273438 92.253906 233.824219 91.890625 C 232.152344 90.542969 228.847656 90.601562 226.964844 90.765625 C 227.292969 89.097656 227.695312 87.414062 228.210938 85.738281 Z M 226.527344 93.40625 C 228.445312 93.175781 231.3125 93.175781 232.203125 93.894531 C 232.601562 94.214844 232.976562 94.578125 233.359375 94.941406 C 234.78125 96.304688 236.558594 98 239.3125 97.570312 C 241.230469 97.28125 247.457031 98.824219 254.425781 101.339844 C 257.636719 102.5 260.1875 103.113281 261.695312 103.414062 C 255.464844 115.636719 245.179688 122.84375 236.753906 120.039062 C 232.058594 118.472656 228.597656 113.992188 227.011719 107.421875 C 225.984375 103.160156 225.84375 98.363281 226.527344 93.40625 Z M 226.527344 93.40625 " fill-opacity="1" fill-rule="nonzero"/></g><path fill="#a6a6a6" d="M 159.933594 48.058594 C 160.722656 48.585938 161.480469 49.152344 162.214844 49.757812 C 162.945312 50.363281 163.648438 51.003906 164.316406 51.675781 C 164.984375 52.347656 165.621094 53.054688 166.222656 53.789062 C 166.820312 54.527344 167.382812 55.289062 167.910156 56.082031 C 168.433594 56.871094 168.917969 57.6875 169.363281 58.527344 C 169.808594 59.363281 170.214844 60.222656 170.574219 61.101562 C 170.933594 61.980469 171.25 62.875 171.523438 63.785156 C 171.796875 64.691406 172.027344 65.613281 172.207031 66.546875 C 172.390625 67.476562 172.527344 68.417969 172.617188 69.363281 C 172.707031 70.308594 172.75 71.253906 172.75 72.203125 C 172.746094 73.152344 172.695312 74.101562 172.601562 75.046875 C 172.503906 75.992188 172.363281 76.929688 172.175781 77.859375 C 171.988281 78.789062 171.753906 79.710938 171.476562 80.617188 C 171.195312 81.527344 170.875 82.417969 170.507812 83.292969 C 170.140625 84.171875 169.734375 85.027344 169.285156 85.863281 C 168.835938 86.699219 168.34375 87.511719 167.8125 88.300781 C 167.285156 89.085938 166.71875 89.847656 166.113281 90.578125 C 165.507812 91.3125 164.867188 92.011719 164.195312 92.683594 C 163.523438 93.351562 162.816406 93.988281 162.082031 94.585938 C 161.34375 95.1875 160.582031 95.75 159.789062 96.277344 C 159 96.800781 158.183594 97.285156 157.34375 97.730469 C 156.507812 98.175781 155.648438 98.578125 154.769531 98.941406 C 153.890625 99.300781 152.996094 99.617188 152.085938 99.890625 C 151.179688 100.164062 150.257812 100.390625 149.324219 100.574219 C 148.394531 100.757812 147.453125 100.894531 146.507812 100.984375 C 145.5625 101.074219 144.617188 101.117188 143.667969 101.113281 C 142.71875 101.113281 141.769531 101.0625 140.824219 100.96875 C 139.878906 100.871094 138.941406 100.730469 138.011719 100.542969 C 137.082031 100.351562 136.160156 100.121094 135.253906 99.839844 C 134.34375 99.5625 133.453125 99.242188 132.578125 98.875 C 131.699219 98.507812 130.84375 98.101562 130.007812 97.652344 C 129.171875 97.199219 128.359375 96.710938 127.570312 96.179688 C 126.785156 95.652344 126.023438 95.082031 125.289062 94.480469 C 124.558594 93.875 123.859375 93.234375 123.1875 92.5625 C 122.519531 91.886719 121.882812 91.183594 121.285156 90.449219 C 120.683594 89.710938 120.121094 88.949219 119.59375 88.15625 C 119.070312 87.367188 118.585938 86.550781 118.140625 85.710938 C 117.695312 84.875 117.292969 84.015625 116.929688 83.136719 C 116.570312 82.257812 116.253906 81.363281 115.980469 80.453125 C 115.707031 79.542969 115.480469 78.625 115.296875 77.691406 C 115.113281 76.761719 114.976562 75.820312 114.886719 74.875 C 114.796875 73.929688 114.753906 72.984375 114.753906 72.035156 C 114.757812 71.082031 114.808594 70.136719 114.902344 69.191406 C 115 68.246094 115.140625 67.308594 115.328125 66.378906 C 115.519531 65.445312 115.75 64.527344 116.027344 63.621094 C 116.308594 62.710938 116.628906 61.820312 116.996094 60.941406 C 117.363281 60.066406 117.769531 59.210938 118.21875 58.375 C 118.671875 57.539062 119.160156 56.726562 119.691406 55.9375 C 120.21875 55.148438 120.789062 54.390625 121.390625 53.65625 C 121.996094 52.925781 122.636719 52.222656 123.308594 51.554688 C 123.984375 50.886719 124.6875 50.25 125.421875 49.648438 C 126.160156 49.050781 126.921875 48.488281 127.714844 47.960938 C 128.503906 47.4375 129.320312 46.949219 130.160156 46.507812 C 130.996094 46.0625 131.855469 45.65625 132.734375 45.296875 C 133.613281 44.9375 134.507812 44.621094 135.417969 44.347656 C 136.328125 44.074219 137.246094 43.84375 138.179688 43.664062 C 139.109375 43.480469 140.050781 43.34375 140.996094 43.253906 C 141.941406 43.164062 142.886719 43.121094 143.835938 43.121094 C 144.789062 43.125 145.734375 43.175781 146.679688 43.269531 C 147.625 43.367188 148.5625 43.507812 149.492188 43.695312 C 150.421875 43.882812 151.34375 44.117188 152.25 44.394531 C 153.160156 44.675781 154.050781 44.996094 154.925781 45.363281 C 155.804688 45.726562 156.660156 46.136719 157.496094 46.585938 C 158.332031 47.035156 159.144531 47.527344 159.933594 48.058594 Z M 159.933594 48.058594 " fill-opacity="1" fill-rule="nonzero"/><path fill="#a6a6a6" d="M 213.292969 61.628906 L 215.871094 61.628906 L 215.871094 106.464844 L 213.292969 106.464844 Z M 213.292969 61.628906 " fill-opacity="1" fill-rule="nonzero"/></svg>