<svg xmlns="http://www.w3.org/2000/svg" xmlns:xlink="http://www.w3.org/1999/xlink" width="500" zoomAndPan="magnify" viewBox="0 0 375 374.999991" height="500" preserveAspectRatio="xMidYMid meet" version="1.0"><defs><g/><clipPath id="de0ddb3138"><path d="M 82.757812 31.378906 L 290 31.378906 L 290 343.425781 L 82.757812 343.425781 Z M 82.757812 31.378906 " clip-rule="nonzero"/></clipPath><clipPath id="e9a737e6a5"><path d="M 82.757812 197.304688 L 285.453125 197.304688 L 285.453125 259.40625 L 82.757812 259.40625 Z M 82.757812 197.304688 " clip-rule="nonzero"/></clipPath></defs><g clip-path="url(#de0ddb3138)"><path fill="#41a9b5" d="M 278.640625 84.1875 L 214.363281 46.929688 C 204.226562 41.050781 191.257812 44.539062 185.402344 54.722656 L 176.144531 70.824219 L 151.371094 70.824219 C 124.675781 70.824219 103.832031 70.824219 103.832031 70.824219 C 92.125 70.824219 82.628906 80.359375 82.628906 92.117188 L 82.628906 147.628906 L 286.1875 147.628906 L 286.1875 144.285156 C 286.1875 136.226562 282.632812 132.054688 276.878906 129.839844 L 286.402344 113.277344 C 292.25 103.089844 288.785156 90.066406 278.640625 84.1875 Z M 263.871094 111.996094 C 259.839844 118.894531 256.332031 122.027344 248.964844 118.007812 C 241.574219 113.972656 199.265625 89.953125 199.265625 89.953125 C 199.265625 89.953125 193.710938 85.636719 195.300781 78.929688 L 202.25 66.90625 C 202.25 66.90625 205.054688 61.316406 214.175781 66.90625 C 223.957031 72.90625 264.875 96.964844 264.875 96.964844 C 264.875 96.964844 270.515625 100.65625 263.871094 111.996094 Z M 98.003906 60.378906 L 151.007812 60.378906 C 158.917969 60.378906 165.324219 53.945312 165.324219 46.007812 C 165.324219 38.074219 158.917969 31.636719 151.007812 31.636719 L 98.003906 31.636719 C 90.097656 31.636719 83.691406 38.070312 83.691406 46.003906 C 83.691406 53.941406 90.097656 60.378906 98.003906 60.378906 Z M 82.628906 322.074219 C 82.628906 333.832031 92.121094 343.359375 103.832031 343.359375 L 264.980469 343.359375 C 276.695312 343.359375 286.1875 333.832031 286.1875 322.074219 C 286.1875 322.074219 286.1875 319.285156 286.1875 314.359375 L 82.632812 314.359375 Z M 82.628906 303.488281 L 286.1875 303.488281 L 286.1875 158.5 L 82.628906 158.5 Z M 82.628906 303.488281 " fill-opacity="1" fill-rule="nonzero"/></g><g clip-path="url(#e9a737e6a5)"><path fill="#1d434e" d="M 82.757812 197.304688 L 285.5625 197.304688 L 285.5625 259.40625 L 82.757812 259.40625 Z M 82.757812 197.304688 " fill-opacity="1" fill-rule="nonzero"/></g><g fill="#fffaef" fill-opacity="1"><g transform="translate(113.429548, 248.154782)"><g><path d="M 23.496094 -32.304688 C 22.945312 -31.789062 22.300781 -31.5625 21.589844 -31.5625 L 4.390625 -31.5625 C 4.164062 -31.5625 4 -31.46875 3.9375 -31.273438 C 3.839844 -31.078125 3.839844 -30.917969 3.96875 -30.757812 L 4.066406 -30.660156 C 4.582031 -30.078125 4.839844 -29.402344 4.839844 -28.625 L 4.839844 -2.421875 C 4.839844 -2.035156 4.777344 -1.679688 4.648438 -1.324219 C 4.519531 -0.96875 4.324219 -0.644531 4.066406 -0.386719 L 3.96875 -0.289062 C 3.839844 -0.0976562 3.839844 0.0664062 3.9375 0.257812 C 4 0.453125 4.164062 0.515625 4.390625 0.515625 L 21.589844 0.515625 C 22.300781 0.515625 22.945312 0.773438 23.496094 1.257812 C 23.65625 1.421875 23.851562 1.453125 24.042969 1.355469 C 24.238281 1.289062 24.367188 1.128906 24.367188 0.871094 L 24.367188 -6.324219 C 24.367188 -6.519531 24.269531 -6.679688 24.074219 -6.777344 C 23.882812 -6.84375 23.6875 -6.808594 23.558594 -6.679688 C 22.980469 -6.132812 22.300781 -5.875 21.527344 -5.875 L 12.039062 -5.875 C 11.8125 -5.875 11.617188 -5.9375 11.457031 -6.101562 C 11.296875 -6.230469 11.230469 -6.421875 11.230469 -6.679688 L 11.230469 -11.523438 C 11.230469 -11.746094 11.296875 -11.941406 11.457031 -12.101562 C 11.617188 -12.230469 11.8125 -12.328125 12.039062 -12.328125 L 14.878906 -12.328125 C 15.652344 -12.328125 16.332031 -12.039062 16.910156 -11.523438 C 17.074219 -11.394531 17.234375 -11.394531 17.429688 -11.488281 C 17.621094 -11.585938 17.71875 -11.746094 17.71875 -11.941406 L 17.71875 -19.105469 C 17.71875 -19.300781 17.621094 -19.429688 17.429688 -19.527344 C 17.234375 -19.621094 17.074219 -19.621094 16.910156 -19.527344 C 16.332031 -18.976562 15.652344 -18.71875 14.878906 -18.71875 L 12.039062 -18.71875 C 11.8125 -18.71875 11.617188 -18.785156 11.457031 -18.945312 C 11.296875 -19.074219 11.230469 -19.265625 11.230469 -19.527344 L 11.230469 -24.367188 C 11.230469 -24.59375 11.296875 -24.785156 11.457031 -24.949219 C 11.617188 -25.078125 11.8125 -25.171875 12.039062 -25.171875 L 21.527344 -25.171875 C 22.300781 -25.171875 22.980469 -24.882812 23.558594 -24.367188 C 23.6875 -24.207031 23.882812 -24.171875 24.074219 -24.269531 C 24.269531 -24.335938 24.367188 -24.496094 24.367188 -24.722656 L 24.367188 -31.949219 C 24.367188 -32.144531 24.238281 -32.304688 24.042969 -32.402344 C 23.851562 -32.46875 23.65625 -32.433594 23.496094 -32.304688 Z M 23.496094 -32.304688 "/></g></g></g><g fill="#fffaef" fill-opacity="1"><g transform="translate(141.668754, 248.154782)"><g><path d="M 23.074219 -28.207031 C 22.042969 -29.433594 20.785156 -30.402344 19.363281 -31.078125 C 17.910156 -31.726562 16.332031 -32.078125 14.652344 -32.078125 L 4.355469 -32.078125 C 4.132812 -32.078125 3.96875 -31.984375 3.90625 -31.789062 C 3.808594 -31.597656 3.839844 -31.433594 4 -31.273438 C 4.582031 -30.628906 4.90625 -29.851562 4.90625 -28.980469 L 4.90625 -3.097656 C 4.90625 -2.195312 4.582031 -1.453125 4 -0.808594 C 3.839844 -0.613281 3.808594 -0.453125 3.90625 -0.257812 C 3.96875 -0.0664062 4.132812 0 4.355469 0 L 11.652344 0 C 11.84375 0 12.003906 -0.0664062 12.070312 -0.257812 C 12.136719 -0.453125 12.136719 -0.613281 12.003906 -0.808594 C 11.523438 -1.324219 11.296875 -1.902344 11.296875 -2.550781 L 11.296875 -7.261719 C 11.296875 -7.585938 11.394531 -7.875 11.652344 -8.132812 C 11.875 -8.359375 12.167969 -8.488281 12.523438 -8.488281 L 14.652344 -8.488281 C 16.332031 -8.488281 17.910156 -8.8125 19.363281 -9.457031 C 20.785156 -10.101562 22.042969 -11.070312 23.074219 -12.328125 C 23.945312 -13.394531 24.625 -14.621094 25.078125 -15.976562 C 25.527344 -17.332031 25.785156 -18.75 25.785156 -20.234375 C 25.785156 -21.71875 25.527344 -23.171875 25.078125 -24.527344 C 24.625 -25.882812 23.945312 -27.109375 23.074219 -28.207031 Z M 18.136719 -16.394531 C 17.332031 -15.363281 16.167969 -14.878906 14.652344 -14.878906 L 12.199219 -14.878906 C 11.941406 -14.878906 11.746094 -14.941406 11.554688 -15.136719 C 11.359375 -15.296875 11.296875 -15.492188 11.296875 -15.75 L 11.296875 -24.785156 C 11.296875 -25.011719 11.359375 -25.207031 11.554688 -25.398438 C 11.746094 -25.59375 11.941406 -25.691406 12.199219 -25.691406 L 14.652344 -25.691406 C 15.8125 -25.691406 16.683594 -25.433594 17.332031 -24.914062 C 17.976562 -24.398438 18.429688 -23.816406 18.75 -23.171875 C 19.042969 -22.527344 19.234375 -21.914062 19.300781 -21.332031 C 19.363281 -20.753906 19.398438 -20.363281 19.398438 -20.234375 C 19.398438 -19.460938 19.265625 -18.75 19.074219 -18.105469 C 18.847656 -17.460938 18.523438 -16.878906 18.136719 -16.394531 Z M 18.136719 -16.394531 "/></g></g></g><g fill="#fffaef" fill-opacity="1"><g transform="translate(170.069328, 248.154782)"><g><path d="M 24.398438 -27.046875 C 23.171875 -28.660156 21.71875 -29.886719 20.105469 -30.757812 C 18.460938 -31.597656 16.75 -32.046875 14.941406 -32.046875 C 13.136719 -32.046875 11.394531 -31.597656 9.746094 -30.757812 C 8.101562 -29.886719 6.679688 -28.660156 5.453125 -27.046875 C 4.292969 -25.527344 3.421875 -23.816406 2.839844 -21.945312 C 2.226562 -20.074219 1.9375 -18.074219 1.9375 -16.007812 C 1.9375 -13.941406 2.226562 -11.941406 2.839844 -10.070312 C 3.421875 -8.164062 4.292969 -6.488281 5.453125 -5.003906 C 6.679688 -3.390625 8.101562 -2.128906 9.746094 -1.289062 C 11.394531 -0.417969 13.136719 0 14.941406 0 C 16.75 0 18.460938 -0.417969 20.105469 -1.289062 C 21.71875 -2.128906 23.171875 -3.390625 24.398438 -5.003906 C 25.5625 -6.488281 26.433594 -8.164062 27.046875 -10.070312 C 27.625 -11.941406 27.949219 -13.941406 27.949219 -16.007812 C 27.949219 -18.074219 27.625 -20.074219 27.046875 -21.945312 C 26.433594 -23.816406 25.5625 -25.527344 24.398438 -27.046875 Z M 14.941406 -6.390625 C 14.039062 -6.390625 13.167969 -6.648438 12.394531 -7.164062 C 11.585938 -7.679688 10.875 -8.359375 10.296875 -9.230469 C 9.683594 -10.101562 9.199219 -11.132812 8.84375 -12.296875 C 8.488281 -13.457031 8.328125 -14.683594 8.328125 -16.007812 C 8.328125 -17.296875 8.488281 -18.558594 8.84375 -19.71875 C 9.199219 -20.882812 9.683594 -21.882812 10.296875 -22.785156 C 10.875 -23.65625 11.585938 -24.367188 12.394531 -24.882812 C 13.167969 -25.398438 14.039062 -25.65625 14.941406 -25.65625 C 15.847656 -25.65625 16.683594 -25.398438 17.492188 -24.882812 C 18.265625 -24.367188 18.976562 -23.65625 19.558594 -22.785156 C 20.140625 -21.882812 20.621094 -20.882812 20.976562 -19.71875 C 21.332031 -18.558594 21.527344 -17.296875 21.527344 -16.007812 C 21.527344 -14.683594 21.332031 -13.457031 20.976562 -12.296875 C 20.621094 -11.132812 20.140625 -10.101562 19.558594 -9.230469 C 18.976562 -8.359375 18.265625 -7.679688 17.492188 -7.164062 C 16.683594 -6.648438 15.847656 -6.390625 14.941406 -6.390625 Z M 14.941406 -6.390625 "/></g></g></g><g fill="#fffaef" fill-opacity="1"><g transform="translate(199.954477, 248.154782)"><g><path d="M 29.144531 -0.902344 C 28.304688 -1.550781 27.625 -2.324219 27.140625 -3.292969 L 21.203125 -14.621094 C 20.71875 -15.554688 20.71875 -16.492188 21.203125 -17.460938 L 27.140625 -28.789062 C 27.625 -29.722656 28.304688 -30.53125 29.144531 -31.175781 C 29.367188 -31.371094 29.433594 -31.5625 29.304688 -31.789062 C 29.207031 -31.984375 29.046875 -32.078125 28.851562 -32.078125 L 20.882812 -32.078125 C 20.65625 -32.078125 20.492188 -31.984375 20.429688 -31.789062 C 20.332031 -31.597656 20.332031 -31.433594 20.460938 -31.273438 C 20.785156 -30.917969 20.816406 -30.53125 20.621094 -30.113281 L 16.554688 -22.332031 C 16.363281 -21.945312 16.039062 -21.785156 15.652344 -21.785156 C 15.234375 -21.785156 14.941406 -21.945312 14.75 -22.332031 L 10.683594 -30.144531 C 10.554688 -30.304688 10.519531 -30.5 10.554688 -30.722656 C 10.585938 -30.917969 10.683594 -31.113281 10.84375 -31.273438 C 10.972656 -31.433594 10.972656 -31.597656 10.910156 -31.789062 C 10.84375 -31.984375 10.683594 -32.078125 10.488281 -32.078125 L 2.453125 -32.078125 C 2.226562 -32.078125 2.066406 -31.984375 2 -31.789062 C 1.9375 -31.660156 1.902344 -31.5625 1.9375 -31.46875 C 1.96875 -31.335938 2.035156 -31.242188 2.128906 -31.175781 L 2.164062 -31.175781 C 3 -30.53125 3.648438 -29.722656 4.164062 -28.789062 L 10.101562 -17.460938 C 10.554688 -16.492188 10.554688 -15.554688 10.101562 -14.621094 L 4.164062 -3.292969 C 3.648438 -2.324219 3 -1.550781 2.164062 -0.902344 L 2.128906 -0.902344 C 2.035156 -0.808594 1.96875 -0.710938 1.9375 -0.613281 C 1.902344 -0.484375 1.9375 -0.386719 2 -0.289062 C 2.066406 -0.0976562 2.226562 0 2.453125 0 L 10.488281 0 C 10.683594 0 10.84375 -0.0664062 10.910156 -0.257812 C 10.972656 -0.453125 10.972656 -0.613281 10.84375 -0.808594 C 10.683594 -0.9375 10.585938 -1.128906 10.554688 -1.355469 C 10.519531 -1.550781 10.554688 -1.742188 10.683594 -1.9375 L 14.75 -9.746094 C 14.941406 -10.101562 15.234375 -10.296875 15.652344 -10.296875 C 16.039062 -10.296875 16.363281 -10.101562 16.554688 -9.746094 L 20.621094 -1.96875 C 20.816406 -1.515625 20.785156 -1.128906 20.460938 -0.808594 C 20.332031 -0.613281 20.332031 -0.453125 20.429688 -0.257812 C 20.492188 -0.0664062 20.65625 0 20.882812 0 L 28.851562 0 C 29.046875 0 29.207031 -0.0976562 29.304688 -0.289062 C 29.433594 -0.484375 29.367188 -0.710938 29.144531 -0.902344 Z M 29.144531 -0.902344 "/></g></g></g><g fill="#fffaef" fill-opacity="1"><g transform="translate(231.291927, 248.154782)"><g><path d="M 28.273438 -31.757812 C 28.175781 -31.949219 28.046875 -32.046875 27.882812 -32.046875 L 27.882812 -32.078125 L 19.785156 -32.078125 C 19.558594 -32.078125 19.398438 -31.984375 19.332031 -31.789062 C 19.234375 -31.597656 19.265625 -31.402344 19.429688 -31.273438 C 19.6875 -30.949219 19.71875 -30.628906 19.527344 -30.304688 L 15.425781 -23.042969 C 15.363281 -22.914062 15.234375 -22.882812 15.105469 -22.882812 C 14.976562 -22.882812 14.878906 -22.914062 14.8125 -23.042969 L 10.714844 -30.304688 C 10.519531 -30.660156 10.554688 -30.984375 10.84375 -31.273438 C 10.972656 -31.402344 10.972656 -31.597656 10.910156 -31.789062 C 10.84375 -31.984375 10.683594 -32.078125 10.488281 -32.078125 L 2.355469 -32.078125 L 2.386719 -32.046875 C 2.195312 -32.046875 2.035156 -31.949219 1.96875 -31.757812 C 1.902344 -31.628906 1.902344 -31.53125 1.9375 -31.433594 C 1.96875 -31.304688 2.035156 -31.242188 2.128906 -31.175781 L 2.164062 -31.144531 C 2.582031 -30.820312 2.96875 -30.464844 3.292969 -30.078125 C 3.613281 -29.691406 3.9375 -29.273438 4.195312 -28.820312 L 10.875 -17.039062 C 11.585938 -15.8125 11.941406 -14.492188 11.941406 -13.070312 L 11.941406 -2.742188 C 11.941406 -2.035156 11.683594 -1.386719 11.199219 -0.839844 C 11.003906 -0.644531 10.972656 -0.484375 11.070312 -0.289062 C 11.132812 -0.0976562 11.296875 0 11.554688 0 L 18.785156 0 C 18.976562 0 19.136719 -0.0664062 19.203125 -0.257812 C 19.265625 -0.453125 19.265625 -0.613281 19.136719 -0.773438 C 18.589844 -1.355469 18.332031 -2.035156 18.332031 -2.808594 L 18.332031 -13.070312 C 18.332031 -14.457031 18.652344 -15.78125 19.363281 -17.039062 L 26.042969 -28.820312 C 26.5625 -29.722656 27.238281 -30.5 28.109375 -31.175781 C 28.304688 -31.304688 28.367188 -31.5 28.273438 -31.757812 Z M 28.273438 -31.757812 "/></g></g></g></svg>