<svg xmlns="http://www.w3.org/2000/svg" xmlns:xlink="http://www.w3.org/1999/xlink" width="500" zoomAndPan="magnify" viewBox="0 0 375 374.999991" height="500" preserveAspectRatio="xMidYMid meet" version="1.0"><defs><g/><clipPath id="6135f310c2"><path d="M 70.4375 13.015625 L 302 13.015625 L 302 361.765625 L 70.4375 361.765625 Z M 70.4375 13.015625 " clip-rule="nonzero"/></clipPath><clipPath id="b3adc4e7e3"><path d="M 70.4375 198.457031 L 296.972656 198.457031 L 296.972656 267.867188 L 70.4375 267.867188 Z M 70.4375 198.457031 " clip-rule="nonzero"/></clipPath></defs><rect x="-37.5" width="450" fill="#ffffff" y="-37.499999" height="449.999989" fill-opacity="1"/><rect x="-37.5" width="450" fill="#ffffff" y="-37.499999" height="449.999989" fill-opacity="1"/><g clip-path="url(#6135f310c2)"><path fill="#a6a6a6" d="M 289.359375 72.035156 L 217.523438 30.394531 C 206.195312 23.824219 191.703125 27.722656 185.15625 39.105469 L 174.808594 57.101562 L 147.121094 57.101562 C 117.285156 57.101562 93.992188 57.101562 93.992188 57.101562 C 80.90625 57.101562 70.292969 67.757812 70.292969 80.898438 L 70.292969 142.9375 L 297.792969 142.9375 L 297.792969 139.199219 C 297.792969 130.199219 293.820312 125.53125 287.390625 123.058594 L 298.035156 104.546875 C 304.574219 93.160156 300.699219 78.605469 289.359375 72.035156 Z M 272.855469 103.117188 C 268.347656 110.824219 264.425781 114.328125 256.195312 109.835938 C 247.933594 105.324219 200.652344 78.480469 200.652344 78.480469 C 200.652344 78.480469 194.441406 73.65625 196.214844 66.160156 L 203.984375 52.722656 C 203.984375 52.722656 207.121094 46.472656 217.316406 52.722656 C 228.242188 59.425781 273.976562 86.316406 273.976562 86.316406 C 273.976562 86.316406 280.277344 90.441406 272.855469 103.117188 Z M 87.476562 45.429688 L 146.71875 45.429688 C 155.554688 45.429688 162.714844 38.238281 162.714844 29.367188 C 162.714844 20.496094 155.554688 13.304688 146.71875 13.304688 L 87.476562 13.304688 C 78.640625 13.304688 71.484375 20.492188 71.484375 29.363281 C 71.484375 38.234375 78.640625 45.429688 87.476562 45.429688 Z M 70.292969 337.898438 C 70.292969 351.042969 80.902344 361.691406 93.992188 361.691406 L 274.09375 361.691406 C 287.1875 361.691406 297.796875 351.042969 297.796875 337.898438 C 297.796875 337.898438 297.796875 334.785156 297.796875 329.28125 L 70.296875 329.28125 Z M 70.292969 317.128906 L 297.792969 317.128906 L 297.792969 155.089844 L 70.292969 155.089844 Z M 70.292969 317.128906 " fill-opacity="1" fill-rule="nonzero"/></g><g clip-path="url(#b3adc4e7e3)"><path fill="#8c8c8c" d="M 70.4375 198.457031 L 297.097656 198.457031 L 297.097656 267.867188 L 70.4375 267.867188 Z M 70.4375 198.457031 " fill-opacity="1" fill-rule="nonzero"/></g><g fill="#fffaef" fill-opacity="1"><g transform="translate(104.717659, 255.288757)"><g><path d="M 26.257812 -36.105469 C 25.644531 -35.527344 24.925781 -35.277344 24.128906 -35.277344 L 4.90625 -35.277344 C 4.652344 -35.277344 4.472656 -35.167969 4.402344 -34.953125 C 4.292969 -34.734375 4.292969 -34.554688 4.4375 -34.375 L 4.542969 -34.265625 C 5.121094 -33.617188 5.410156 -32.859375 5.410156 -31.992188 L 5.410156 -2.707031 C 5.410156 -2.273438 5.339844 -1.875 5.195312 -1.480469 C 5.050781 -1.082031 4.832031 -0.722656 4.542969 -0.433594 L 4.4375 -0.324219 C 4.292969 -0.109375 4.292969 0.0703125 4.402344 0.289062 C 4.472656 0.503906 4.652344 0.578125 4.90625 0.578125 L 24.128906 0.578125 C 24.925781 0.578125 25.644531 0.867188 26.257812 1.40625 C 26.4375 1.585938 26.65625 1.625 26.871094 1.515625 C 27.089844 1.441406 27.234375 1.261719 27.234375 0.972656 L 27.234375 -7.070312 C 27.234375 -7.285156 27.125 -7.464844 26.90625 -7.574219 C 26.691406 -7.648438 26.476562 -7.609375 26.332031 -7.464844 C 25.679688 -6.851562 24.925781 -6.566406 24.058594 -6.566406 L 13.453125 -6.566406 C 13.203125 -6.566406 12.984375 -6.636719 12.804688 -6.816406 C 12.625 -6.960938 12.550781 -7.179688 12.550781 -7.464844 L 12.550781 -12.875 C 12.550781 -13.128906 12.625 -13.347656 12.804688 -13.527344 C 12.984375 -13.671875 13.203125 -13.777344 13.453125 -13.777344 L 16.628906 -13.777344 C 17.492188 -13.777344 18.25 -13.453125 18.902344 -12.875 C 19.082031 -12.734375 19.261719 -12.734375 19.476562 -12.839844 C 19.695312 -12.949219 19.800781 -13.128906 19.800781 -13.347656 L 19.800781 -21.351562 C 19.800781 -21.570312 19.695312 -21.714844 19.476562 -21.820312 C 19.261719 -21.929688 19.082031 -21.929688 18.902344 -21.820312 C 18.25 -21.207031 17.492188 -20.921875 16.628906 -20.921875 L 13.453125 -20.921875 C 13.203125 -20.921875 12.984375 -20.992188 12.804688 -21.171875 C 12.625 -21.316406 12.550781 -21.535156 12.550781 -21.820312 L 12.550781 -27.234375 C 12.550781 -27.484375 12.625 -27.703125 12.804688 -27.882812 C 12.984375 -28.027344 13.203125 -28.132812 13.453125 -28.132812 L 24.058594 -28.132812 C 24.925781 -28.132812 25.679688 -27.808594 26.332031 -27.234375 C 26.476562 -27.050781 26.691406 -27.015625 26.90625 -27.125 C 27.125 -27.195312 27.234375 -27.375 27.234375 -27.628906 L 27.234375 -35.707031 C 27.234375 -35.925781 27.089844 -36.105469 26.871094 -36.214844 C 26.65625 -36.285156 26.4375 -36.25 26.257812 -36.105469 Z M 26.257812 -36.105469 "/></g></g></g><g fill="#fffaef" fill-opacity="1"><g transform="translate(136.278256, 255.288757)"><g><path d="M 25.789062 -31.523438 C 24.636719 -32.894531 23.230469 -33.976562 21.640625 -34.734375 C 20.019531 -35.457031 18.25 -35.851562 16.375 -35.851562 L 4.871094 -35.851562 C 4.617188 -35.851562 4.4375 -35.746094 4.363281 -35.527344 C 4.257812 -35.3125 4.292969 -35.132812 4.472656 -34.953125 C 5.121094 -34.230469 5.484375 -33.363281 5.484375 -32.390625 L 5.484375 -3.460938 C 5.484375 -2.453125 5.121094 -1.625 4.472656 -0.902344 C 4.292969 -0.683594 4.257812 -0.503906 4.363281 -0.289062 C 4.4375 -0.0703125 4.617188 0 4.871094 0 L 13.019531 0 C 13.238281 0 13.417969 -0.0703125 13.488281 -0.289062 C 13.5625 -0.503906 13.5625 -0.683594 13.417969 -0.902344 C 12.875 -1.480469 12.625 -2.128906 12.625 -2.847656 L 12.625 -8.117188 C 12.625 -8.476562 12.734375 -8.800781 13.019531 -9.089844 C 13.273438 -9.34375 13.597656 -9.484375 13.996094 -9.484375 L 16.375 -9.484375 C 18.25 -9.484375 20.019531 -9.847656 21.640625 -10.570312 C 23.230469 -11.289062 24.636719 -12.371094 25.789062 -13.777344 C 26.761719 -14.96875 27.519531 -16.339844 28.027344 -17.855469 C 28.53125 -19.371094 28.820312 -20.957031 28.820312 -22.617188 C 28.820312 -24.273438 28.53125 -25.898438 28.027344 -27.414062 C 27.519531 -28.929688 26.761719 -30.296875 25.789062 -31.523438 Z M 20.269531 -18.324219 C 19.371094 -17.167969 18.070312 -16.628906 16.375 -16.628906 L 13.632812 -16.628906 C 13.347656 -16.628906 13.128906 -16.699219 12.914062 -16.917969 C 12.695312 -17.097656 12.625 -17.3125 12.625 -17.601562 L 12.625 -27.703125 C 12.625 -27.953125 12.695312 -28.171875 12.914062 -28.386719 C 13.128906 -28.601562 13.347656 -28.710938 13.632812 -28.710938 L 16.375 -28.710938 C 17.675781 -28.710938 18.648438 -28.421875 19.371094 -27.847656 C 20.089844 -27.269531 20.597656 -26.621094 20.957031 -25.898438 C 21.28125 -25.175781 21.496094 -24.492188 21.570312 -23.84375 C 21.640625 -23.191406 21.679688 -22.761719 21.679688 -22.617188 C 21.679688 -21.75 21.535156 -20.957031 21.316406 -20.234375 C 21.066406 -19.511719 20.703125 -18.863281 20.269531 -18.324219 Z M 20.269531 -18.324219 "/></g></g></g><g fill="#fffaef" fill-opacity="1"><g transform="translate(168.0192, 255.288757)"><g><path d="M 27.269531 -30.226562 C 25.898438 -32.03125 24.273438 -33.402344 22.472656 -34.375 C 20.632812 -35.3125 18.71875 -35.816406 16.699219 -35.816406 C 14.679688 -35.816406 12.734375 -35.3125 10.894531 -34.375 C 9.054688 -33.402344 7.464844 -32.03125 6.097656 -30.226562 C 4.796875 -28.53125 3.824219 -26.621094 3.175781 -24.527344 C 2.488281 -22.433594 2.164062 -20.199219 2.164062 -17.890625 C 2.164062 -15.582031 2.488281 -13.347656 3.175781 -11.253906 C 3.824219 -9.125 4.796875 -7.25 6.097656 -5.589844 C 7.464844 -3.789062 9.054688 -2.378906 10.894531 -1.441406 C 12.734375 -0.46875 14.679688 0 16.699219 0 C 18.71875 0 20.632812 -0.46875 22.472656 -1.441406 C 24.273438 -2.378906 25.898438 -3.789062 27.269531 -5.589844 C 28.566406 -7.25 29.539062 -9.125 30.226562 -11.253906 C 30.875 -13.347656 31.234375 -15.582031 31.234375 -17.890625 C 31.234375 -20.199219 30.875 -22.433594 30.226562 -24.527344 C 29.539062 -26.621094 28.566406 -28.53125 27.269531 -30.226562 Z M 16.699219 -7.140625 C 15.691406 -7.140625 14.714844 -7.429688 13.851562 -8.007812 C 12.949219 -8.585938 12.15625 -9.34375 11.507812 -10.316406 C 10.820312 -11.289062 10.28125 -12.445312 9.882812 -13.742188 C 9.484375 -15.042969 9.304688 -16.410156 9.304688 -17.890625 C 9.304688 -19.332031 9.484375 -20.738281 9.882812 -22.039062 C 10.28125 -23.335938 10.820312 -24.457031 11.507812 -25.464844 C 12.15625 -26.4375 12.949219 -27.234375 13.851562 -27.808594 C 14.714844 -28.386719 15.691406 -28.675781 16.699219 -28.675781 C 17.710938 -28.675781 18.648438 -28.386719 19.550781 -27.808594 C 20.414062 -27.234375 21.207031 -26.4375 21.859375 -25.464844 C 22.507812 -24.457031 23.046875 -23.335938 23.445312 -22.039062 C 23.84375 -20.738281 24.058594 -19.332031 24.058594 -17.890625 C 24.058594 -16.410156 23.84375 -15.042969 23.445312 -13.742188 C 23.046875 -12.445312 22.507812 -11.289062 21.859375 -10.316406 C 21.207031 -9.34375 20.414062 -8.585938 19.550781 -8.007812 C 18.648438 -7.429688 17.710938 -7.140625 16.699219 -7.140625 Z M 16.699219 -7.140625 "/></g></g></g><g fill="#fffaef" fill-opacity="1"><g transform="translate(201.419331, 255.288757)"><g><path d="M 32.570312 -1.011719 C 31.632812 -1.730469 30.875 -2.597656 30.335938 -3.679688 L 23.699219 -16.339844 C 23.15625 -17.386719 23.15625 -18.429688 23.699219 -19.511719 L 30.335938 -32.175781 C 30.875 -33.21875 31.632812 -34.121094 32.570312 -34.84375 C 32.824219 -35.058594 32.894531 -35.277344 32.75 -35.527344 C 32.644531 -35.746094 32.460938 -35.851562 32.246094 -35.851562 L 23.335938 -35.851562 C 23.085938 -35.851562 22.902344 -35.746094 22.832031 -35.527344 C 22.722656 -35.3125 22.722656 -35.132812 22.867188 -34.953125 C 23.230469 -34.554688 23.265625 -34.121094 23.046875 -33.652344 L 18.503906 -24.960938 C 18.289062 -24.527344 17.925781 -24.347656 17.492188 -24.347656 C 17.023438 -24.347656 16.699219 -24.527344 16.484375 -24.960938 L 11.9375 -33.6875 C 11.792969 -33.871094 11.757812 -34.085938 11.792969 -34.339844 C 11.832031 -34.554688 11.9375 -34.769531 12.121094 -34.953125 C 12.261719 -35.132812 12.261719 -35.3125 12.191406 -35.527344 C 12.121094 -35.746094 11.9375 -35.851562 11.722656 -35.851562 L 2.742188 -35.851562 C 2.488281 -35.851562 2.308594 -35.746094 2.234375 -35.527344 C 2.164062 -35.382812 2.128906 -35.277344 2.164062 -35.167969 C 2.199219 -35.023438 2.273438 -34.914062 2.378906 -34.84375 L 2.417969 -34.84375 C 3.355469 -34.121094 4.074219 -33.21875 4.652344 -32.175781 L 11.289062 -19.511719 C 11.792969 -18.429688 11.792969 -17.386719 11.289062 -16.339844 L 4.652344 -3.679688 C 4.074219 -2.597656 3.355469 -1.730469 2.417969 -1.011719 L 2.378906 -1.011719 C 2.273438 -0.902344 2.199219 -0.792969 2.164062 -0.683594 C 2.128906 -0.542969 2.164062 -0.433594 2.234375 -0.324219 C 2.308594 -0.109375 2.488281 0 2.742188 0 L 11.722656 0 C 11.9375 0 12.121094 -0.0703125 12.191406 -0.289062 C 12.261719 -0.503906 12.261719 -0.683594 12.121094 -0.902344 C 11.9375 -1.046875 11.832031 -1.261719 11.792969 -1.515625 C 11.757812 -1.730469 11.792969 -1.949219 11.9375 -2.164062 L 16.484375 -10.894531 C 16.699219 -11.289062 17.023438 -11.507812 17.492188 -11.507812 C 17.925781 -11.507812 18.289062 -11.289062 18.503906 -10.894531 L 23.046875 -2.199219 C 23.265625 -1.695312 23.230469 -1.261719 22.867188 -0.902344 C 22.722656 -0.683594 22.722656 -0.503906 22.832031 -0.289062 C 22.902344 -0.0703125 23.085938 0 23.335938 0 L 32.246094 0 C 32.460938 0 32.644531 -0.109375 32.75 -0.324219 C 32.894531 -0.542969 32.824219 -0.792969 32.570312 -1.011719 Z M 32.570312 -1.011719 "/></g></g></g><g fill="#fffaef" fill-opacity="1"><g transform="translate(236.442576, 255.288757)"><g><path d="M 31.597656 -35.492188 C 31.488281 -35.707031 31.34375 -35.816406 31.164062 -35.816406 L 31.164062 -35.851562 L 22.109375 -35.851562 C 21.859375 -35.851562 21.679688 -35.746094 21.605469 -35.527344 C 21.496094 -35.3125 21.535156 -35.097656 21.714844 -34.953125 C 22.003906 -34.589844 22.039062 -34.230469 21.820312 -33.871094 L 17.242188 -25.753906 C 17.167969 -25.609375 17.023438 -25.574219 16.878906 -25.574219 C 16.734375 -25.574219 16.628906 -25.609375 16.554688 -25.753906 L 11.976562 -33.871094 C 11.757812 -34.265625 11.792969 -34.625 12.121094 -34.953125 C 12.261719 -35.097656 12.261719 -35.3125 12.191406 -35.527344 C 12.121094 -35.746094 11.9375 -35.851562 11.722656 -35.851562 L 2.632812 -35.851562 L 2.667969 -35.816406 C 2.453125 -35.816406 2.273438 -35.707031 2.199219 -35.492188 C 2.128906 -35.347656 2.128906 -35.238281 2.164062 -35.132812 C 2.199219 -34.988281 2.273438 -34.914062 2.378906 -34.84375 L 2.417969 -34.808594 C 2.886719 -34.445312 3.320312 -34.050781 3.679688 -33.617188 C 4.039062 -33.183594 4.402344 -32.714844 4.6875 -32.210938 L 12.15625 -19.042969 C 12.949219 -17.675781 13.347656 -16.195312 13.347656 -14.609375 L 13.347656 -3.066406 C 13.347656 -2.273438 13.058594 -1.550781 12.515625 -0.9375 C 12.300781 -0.722656 12.261719 -0.542969 12.371094 -0.324219 C 12.445312 -0.109375 12.625 0 12.914062 0 L 20.992188 0 C 21.207031 0 21.390625 -0.0703125 21.460938 -0.289062 C 21.535156 -0.503906 21.535156 -0.683594 21.390625 -0.867188 C 20.777344 -1.515625 20.488281 -2.273438 20.488281 -3.136719 L 20.488281 -14.609375 C 20.488281 -16.160156 20.847656 -17.636719 21.640625 -19.042969 L 29.109375 -32.210938 C 29.683594 -33.21875 30.441406 -34.085938 31.417969 -34.84375 C 31.632812 -34.988281 31.707031 -35.203125 31.597656 -35.492188 Z M 31.597656 -35.492188 "/></g></g></g></svg>