<svg xmlns="http://www.w3.org/2000/svg" xmlns:xlink="http://www.w3.org/1999/xlink" width="1080" zoomAndPan="magnify" viewBox="0 0 810 809.999993" height="1080" preserveAspectRatio="xMidYMid meet" version="1.0"><defs><clipPath id="aecbf372fa"><path d="M 118.457031 41.710938 L 691.457031 41.710938 L 691.457031 768.460938 L 118.457031 768.460938 Z M 118.457031 41.710938 " clip-rule="nonzero"/></clipPath></defs><g clip-path="url(#aecbf372fa)"><path fill="#41a9b5" d="M 405.039062 558.671875 C 277.738281 558.671875 174.546875 455.484375 174.546875 328.214844 C 174.546875 200.917969 277.738281 97.726562 405.039062 97.726562 C 532.304688 97.726562 635.488281 200.917969 635.488281 328.214844 C 635.488281 455.484375 532.304688 558.671875 405.039062 558.671875 Z M 405.039062 41.734375 C 246.820312 41.734375 118.554688 170 118.554688 328.214844 C 118.554688 580.027344 400.542969 765.386719 405 768.3125 C 405.039062 768.3125 405.039062 768.3125 405.039062 768.3125 C 405.039062 768.3125 691.480469 582.019531 691.480469 328.214844 C 691.480469 170 563.21875 41.734375 405.039062 41.734375 " fill-opacity="1" fill-rule="nonzero"/></g><path fill="#41a9b5" d="M 370.171875 312.898438 L 439.871094 312.898438 C 443.363281 312.898438 446.207031 315.734375 446.207031 319.234375 L 446.207031 386.933594 C 446.207031 390.429688 443.363281 393.273438 439.871094 393.273438 L 370.171875 393.273438 C 366.671875 393.273438 363.835938 390.429688 363.835938 386.933594 L 363.835938 319.234375 C 363.835938 315.734375 366.671875 312.898438 370.171875 312.898438 Z M 547.476562 280.328125 L 415.910156 192.085938 C 412.953125 190.085938 409.070312 188.96875 405 188.96875 C 400.972656 188.96875 397.089844 190.085938 394.132812 192.039062 L 262.566406 280.328125 C 262.335938 280.480469 262.066406 280.675781 261.875 280.90625 C 256.039062 286.738281 256.730469 291.425781 257.691406 293.699219 C 258.648438 296 261.453125 299.839844 269.710938 299.839844 L 302.425781 299.839844 L 302.425781 421.265625 C 302.425781 432.289062 311.378906 441.277344 322.398438 441.277344 L 487.640625 441.277344 C 498.664062 441.277344 507.609375 432.289062 507.609375 421.265625 L 507.609375 299.839844 L 540.332031 299.839844 C 548.589844 299.839844 551.390625 296 552.347656 293.699219 C 553.277344 291.425781 554 286.738281 548.167969 280.90625 C 547.933594 280.675781 547.703125 280.480469 547.476562 280.328125 " fill-opacity="1" fill-rule="nonzero"/></svg>