<svg xmlns="http://www.w3.org/2000/svg" xmlns:xlink="http://www.w3.org/1999/xlink" width="500" zoomAndPan="magnify" viewBox="0 0 375 374.999991" height="500" preserveAspectRatio="xMidYMid meet" version="1.0"><defs><clipPath id="e2aa81d8b0"><path d="M 75.386719 10.59375 L 299.636719 10.59375 L 299.636719 26 L 75.386719 26 Z M 75.386719 10.59375 " clip-rule="nonzero"/></clipPath><clipPath id="5015391c44"><path d="M 75.386719 27 L 190 27 L 190 31 L 75.386719 31 Z M 75.386719 27 " clip-rule="nonzero"/></clipPath><clipPath id="d76d764b3b"><path d="M 214 27 L 299.636719 27 L 299.636719 31 L 214 31 Z M 214 27 " clip-rule="nonzero"/></clipPath><clipPath id="00747412c0"><path d="M 159 342 L 167 342 L 167 364.59375 L 159 364.59375 Z M 159 342 " clip-rule="nonzero"/></clipPath><clipPath id="7b3e41de05"><path d="M 84 194 L 195 194 L 195 364.59375 L 84 364.59375 Z M 84 194 " clip-rule="nonzero"/></clipPath></defs><g clip-path="url(#e2aa81d8b0)"><path fill="#a6a6a6" d="M 190.972656 14.691406 L 216.261719 21.867188 C 218.972656 19.925781 222.476562 18.148438 225.449219 19.039062 C 230.050781 20.417969 230.457031 23.804688 233.183594 25.574219 L 299.613281 25.574219 L 299.613281 10.636719 L 75.386719 10.636719 L 75.386719 25.574219 L 189.097656 25.574219 C 189.132812 22.84375 189.464844 20.011719 190.261719 17.199219 Z M 190.972656 14.691406 " fill-opacity="1" fill-rule="nonzero"/></g><g clip-path="url(#5015391c44)"><path fill="#a6a6a6" d="M 189.128906 27.816406 L 75.386719 27.816406 L 75.386719 30.335938 L 189.324219 30.335938 C 189.234375 29.511719 189.167969 28.675781 189.128906 27.816406 Z M 189.128906 27.816406 " fill-opacity="1" fill-rule="nonzero"/></g><g clip-path="url(#d76d764b3b)"><path fill="#a6a6a6" d="M 299.613281 30.335938 L 299.613281 27.816406 L 215.5 27.816406 C 215.144531 28.683594 214.757812 29.523438 214.339844 30.335938 Z M 299.613281 30.335938 " fill-opacity="1" fill-rule="nonzero"/></g><path fill="#a6a6a6" d="M 199.515625 44.820312 C 199.644531 44.363281 199.636719 43.90625 199.539062 43.472656 C 202.910156 40.953125 211.273438 33.882812 214.089844 23.960938 L 203.429688 20.9375 L 192.769531 17.910156 C 189.953125 27.832031 193.359375 38.242188 194.902344 42.160156 C 194.59375 42.476562 194.347656 42.863281 194.21875 43.316406 L 193.769531 44.90625 C 192.796875 44.875 191.820312 45.042969 190.914062 45.410156 C 189.851562 45.84375 188.878906 46.542969 188.113281 47.503906 L 173.554688 65.699219 C 178.070312 64.132812 182.441406 63.25 185.878906 63.25 C 189.894531 63.25 191.945312 64.445312 192.984375 65.761719 C 193.445312 65.414062 193.808594 64.925781 193.980469 64.328125 L 194.8125 61.382812 L 198.972656 56.1875 C 198.988281 56.167969 199 56.148438 199.015625 56.125 C 200.183594 54.636719 200.648438 52.816406 200.449219 51.070312 C 200.296875 49.707031 199.738281 48.390625 198.808594 47.308594 Z M 199.515625 44.820312 " fill-opacity="1" fill-rule="nonzero"/><path fill="#a6a6a6" d="M 195.113281 239.929688 L 177.363281 239.929688 L 176.746094 244.277344 L 196.117188 244.277344 L 205.265625 283.929688 L 171.144531 283.929688 L 170.53125 288.273438 L 206.269531 288.273438 L 215.417969 327.925781 L 164.925781 327.925781 L 164.3125 332.273438 L 216.421875 332.273438 L 223.453125 362.753906 L 231.273438 362.753906 L 194.429688 203.066406 L 186.605469 203.066406 Z M 195.113281 239.929688 " fill-opacity="1" fill-rule="nonzero"/><path fill="#a6a6a6" d="M 146.195312 223.609375 L 143.558594 237.324219 L 148.132812 237.324219 Z M 146.195312 223.609375 " fill-opacity="1" fill-rule="nonzero"/><path fill="#a6a6a6" d="M 154.347656 281.320312 L 149.480469 246.882812 L 141.757812 246.882812 L 146.625 281.320312 Z M 154.347656 281.320312 " fill-opacity="1" fill-rule="nonzero"/><path fill="#a6a6a6" d="M 147.972656 290.882812 L 152.570312 323.414062 L 156.433594 296.078125 L 155.699219 290.882812 Z M 147.972656 290.882812 " fill-opacity="1" fill-rule="nonzero"/><g clip-path="url(#00747412c0)"><path fill="#a6a6a6" d="M 166.085938 364.363281 L 162.929688 342.042969 L 159.839844 363.929688 Z M 166.085938 364.363281 " fill-opacity="1" fill-rule="nonzero"/></g><path fill="#a6a6a6" d="M 145.328125 200.460938 L 151.191406 200.460938 L 151.867188 196.378906 L 146.351562 199.878906 C 146.019531 200.089844 145.675781 200.28125 145.328125 200.460938 Z M 145.328125 200.460938 " fill-opacity="1" fill-rule="nonzero"/><g clip-path="url(#7b3e41de05)"><path fill="#a6a6a6" d="M 173.667969 224.320312 C 173.050781 228.039062 170.917969 231.148438 167.96875 233.085938 L 167.003906 239.929688 L 143.058594 239.929688 L 142.222656 244.277344 L 166.386719 244.277344 L 160.785156 283.929688 L 110.238281 283.929688 L 112.195312 275.445312 C 111.085938 273.054688 110.675781 270.3125 111.210938 267.53125 L 121.078125 216.148438 L 119.457031 210.082031 L 84.226562 362.753906 L 92.050781 362.753906 L 99.082031 332.273438 L 153.953125 332.273438 L 149.417969 364.363281 L 157.21875 363.824219 L 180.308594 200.460938 L 194.628906 200.460938 L 194.628906 194.085938 L 178.675781 194.085938 Z M 154.566406 327.925781 L 100.085938 327.925781 L 109.234375 288.273438 L 160.171875 288.273438 Z M 154.566406 327.925781 " fill-opacity="1" fill-rule="nonzero"/></g><path fill="#a6a6a6" d="M 142.652344 96.074219 C 142.617188 95.976562 142.582031 95.882812 142.546875 95.789062 L 133.109375 103.804688 L 128.636719 107.601562 C 128.046875 108.101562 127.566406 108.6875 127.183594 109.316406 C 126.730469 109.980469 126.382812 110.738281 126.1875 111.570312 L 112.839844 168.414062 C 112.195312 170.304688 112.082031 172.398438 112.636719 174.472656 L 123.75 216.054688 L 113.773438 268.023438 C 112.6875 273.679688 116.390625 279.144531 122.046875 280.230469 C 122.710938 280.359375 123.371094 280.417969 124.027344 280.417969 C 128.925781 280.417969 133.296875 276.949219 134.253906 271.957031 L 144.683594 217.636719 C 144.980469 216.089844 144.921875 214.496094 144.519531 212.976562 L 140.835938 199.203125 C 142.257812 199 143.664062 198.5 144.953125 197.679688 L 163.917969 185.644531 L 165.398438 187.792969 L 154.820312 194.507812 L 150.515625 220.484375 C 149.574219 226.167969 153.417969 231.535156 159.097656 232.480469 C 159.675781 232.574219 160.25 232.621094 160.816406 232.621094 C 165.828125 232.621094 170.25 229 171.09375 223.894531 L 179.785156 171.460938 C 179.796875 171.390625 179.796875 171.324219 179.808594 171.253906 C 179.835938 171.074219 179.855469 170.890625 179.871094 170.707031 C 179.886719 170.542969 179.902344 170.378906 179.910156 170.21875 C 179.917969 170.042969 179.914062 169.871094 179.914062 169.699219 C 179.914062 169.527344 179.914062 169.355469 179.90625 169.1875 C 179.898438 169.023438 179.878906 168.859375 179.863281 168.691406 C 179.84375 168.519531 179.828125 168.34375 179.800781 168.171875 C 179.777344 168.011719 179.742188 167.851562 179.710938 167.6875 C 179.675781 167.519531 179.640625 167.347656 179.597656 167.175781 C 179.558594 167.019531 179.507812 166.863281 179.460938 166.703125 C 179.410156 166.535156 179.359375 166.367188 179.296875 166.203125 C 179.242188 166.050781 179.179688 165.902344 179.117188 165.753906 C 179.046875 165.585938 178.976562 165.417969 178.898438 165.253906 C 178.832031 165.113281 178.757812 164.976562 178.683594 164.839844 C 178.59375 164.671875 178.5 164.503906 178.398438 164.335938 C 178.367188 164.28125 178.339844 164.222656 178.304688 164.167969 C 178.253906 164.089844 178.195312 164.019531 178.148438 163.945312 C 178.042969 163.792969 177.9375 163.640625 177.824219 163.492188 C 177.722656 163.355469 177.617188 163.226562 177.511719 163.09375 C 177.40625 162.96875 177.296875 162.84375 177.183594 162.71875 C 177.0625 162.585938 176.9375 162.457031 176.8125 162.332031 C 176.699219 162.222656 176.585938 162.113281 176.46875 162.011719 C 176.332031 161.886719 176.195312 161.769531 176.054688 161.65625 C 175.929688 161.554688 175.804688 161.457031 175.675781 161.363281 C 175.535156 161.261719 175.394531 161.160156 175.25 161.0625 C 175.105469 160.96875 174.960938 160.878906 174.8125 160.792969 C 174.671875 160.710938 174.535156 160.628906 174.394531 160.554688 C 174.234375 160.46875 174.070312 160.390625 173.902344 160.3125 C 173.761719 160.246094 173.621094 160.183594 173.480469 160.125 C 173.308594 160.054688 173.140625 159.988281 172.964844 159.929688 C 172.8125 159.875 172.660156 159.824219 172.503906 159.777344 C 172.339844 159.726562 172.171875 159.683594 172 159.640625 C 171.828125 159.597656 171.65625 159.5625 171.484375 159.527344 C 171.390625 159.507812 171.296875 159.484375 171.203125 159.464844 C 171.132812 159.453125 171.066406 159.453125 170.996094 159.441406 C 170.8125 159.414062 170.628906 159.394531 170.441406 159.378906 C 170.285156 159.367188 170.128906 159.351562 169.972656 159.34375 C 169.785156 159.335938 169.597656 159.335938 169.410156 159.335938 C 169.257812 159.335938 169.105469 159.335938 168.953125 159.34375 C 168.757812 159.355469 168.566406 159.375 168.371094 159.394531 C 168.230469 159.414062 168.089844 159.425781 167.949219 159.445312 C 167.746094 159.476562 167.546875 159.519531 167.34375 159.558594 C 167.214844 159.585938 167.085938 159.609375 166.960938 159.644531 C 166.753906 159.695312 166.550781 159.757812 166.347656 159.824219 C 166.230469 159.863281 166.109375 159.894531 165.992188 159.9375 C 165.792969 160.011719 165.597656 160.089844 165.402344 160.175781 C 165.28125 160.226562 165.164062 160.277344 165.046875 160.332031 C 164.863281 160.417969 164.683594 160.515625 164.5 160.613281 C 164.378906 160.683594 164.253906 160.75 164.136719 160.820312 C 164.0625 160.867188 163.984375 160.902344 163.910156 160.949219 L 162.707031 161.714844 L 169.542969 132.585938 L 171.84375 134.199219 L 185.203125 143.578125 C 186.394531 144.414062 187.792969 144.839844 189.199219 144.839844 C 190.292969 144.839844 191.386719 144.582031 192.394531 144.0625 L 217.597656 131.027344 C 220.082031 129.742188 221.457031 127.164062 221.34375 124.539062 L 228.910156 127.375 L 229.824219 124.933594 L 220.4375 121.417969 C 218.765625 118.472656 215.242188 117.191406 212.105469 118.296875 L 206.621094 116.238281 L 205.398438 114.160156 L 214.824219 117.5 L 216.46875 112.855469 L 198.722656 106.574219 C 196.011719 106.703125 193.929688 107.859375 190.59375 106.132812 C 187.726562 104.648438 186.898438 103.183594 186.675781 102.308594 L 184.789062 101.640625 L 183.144531 106.28125 L 201.746094 112.867188 L 201.644531 112.925781 L 204.839844 118.359375 L 208.886719 119.875 L 189.746094 129.777344 L 174.589844 119.136719 L 170.128906 116.003906 C 169.277344 115.164062 168.199219 114.535156 166.949219 114.242188 L 147.636719 109.707031 L 150.109375 107.609375 L 151.425781 106.492188 C 147.570312 104.082031 144.460938 100.496094 142.652344 96.074219 Z M 142.652344 96.074219 " fill-opacity="1" fill-rule="nonzero"/><path fill="#a6a6a6" d="M 170.445312 82.753906 C 172.328125 82.230469 174.300781 81.5625 176.3125 80.742188 C 185.863281 76.839844 192.554688 71.09375 191.253906 67.910156 C 189.953125 64.726562 181.152344 65.308594 171.601562 69.210938 C 171.273438 69.34375 170.957031 69.484375 170.636719 69.621094 C 166.046875 67.722656 160.738281 67.5625 155.773438 69.589844 C 145.777344 73.671875 140.984375 85.089844 145.066406 95.085938 C 149.152344 105.085938 160.566406 109.878906 170.566406 105.792969 C 180.171875 101.867188 184.96875 91.179688 181.707031 81.476562 C 177.277344 82.652344 173.277344 83.089844 170.445312 82.753906 Z M 170.445312 82.753906 " fill-opacity="1" fill-rule="nonzero"/><path fill="#a6a6a6" d="M 198.90625 105.90625 L 199.175781 105.164062 L 185.34375 100.136719 L 184.988281 101.105469 L 186.597656 101.691406 L 198.824219 106.136719 Z M 198.90625 105.90625 " fill-opacity="1" fill-rule="nonzero"/></svg>