<svg xmlns="http://www.w3.org/2000/svg" xmlns:xlink="http://www.w3.org/1999/xlink" width="1080" zoomAndPan="magnify" viewBox="0 0 810 809.999993" height="1080" preserveAspectRatio="xMidYMid meet" version="1.0"><defs><clipPath id="e34a0d1bc4"><path d="M 72.789062 72.789062 L 737.289062 72.789062 L 737.289062 737.289062 L 72.789062 737.289062 Z M 72.789062 72.789062 " clip-rule="nonzero"/></clipPath></defs><g clip-path="url(#e34a0d1bc4)"><path fill="#41a9b5" d="M 405 72.789062 L 346.925781 112.695312 L 277.824219 98.09375 L 239.21875 157.140625 L 170.117188 170.117188 L 157.140625 239.21875 L 98.09375 277.824219 L 112.367188 346.925781 L 72.789062 405 L 112.367188 463.394531 L 98.09375 532.171875 L 157.140625 570.777344 L 170.117188 639.882812 L 239.21875 653.183594 L 277.824219 711.902344 L 346.925781 697.628906 L 405 737.207031 L 463.070312 697.628906 L 532.171875 711.902344 L 570.777344 653.183594 L 639.878906 639.882812 L 652.859375 570.777344 L 711.902344 532.171875 L 697.628906 463.394531 L 737.207031 405 L 697.628906 346.925781 L 711.902344 277.824219 L 652.859375 239.21875 L 639.878906 170.117188 L 570.777344 157.140625 L 532.171875 98.09375 L 463.070312 112.695312 Z M 405 176.605469 C 531.136719 176.605469 633.390625 278.859375 633.390625 405 C 633.390625 531.136719 531.136719 633.394531 405 633.394531 C 278.859375 633.394531 176.605469 531.136719 176.605469 405 C 176.605469 278.859375 278.859375 176.605469 405 176.605469 Z M 505.894531 300.535156 L 370.933594 444.578125 L 300.210938 381.640625 L 258.683594 428.03125 L 352.117188 511.085938 L 374.828125 531.199219 L 395.589844 509.140625 L 551.3125 343.035156 Z M 505.894531 300.535156 " fill-opacity="1" fill-rule="nonzero"/></g></svg>