<svg xmlns="http://www.w3.org/2000/svg" xmlns:xlink="http://www.w3.org/1999/xlink" width="500" zoomAndPan="magnify" viewBox="0 0 375 374.999991" height="500" preserveAspectRatio="xMidYMid meet" version="1.0"><defs><clipPath id="9f377f4014"><path d="M 52.316406 78 L 322 78 L 322 297.65625 L 52.316406 297.65625 Z M 52.316406 78 " clip-rule="nonzero"/></clipPath></defs><g clip-path="url(#9f377f4014)"><path fill="#41a9b5" d="M 307.820312 258.667969 C 307.625 257.652344 307.34375 256.660156 306.976562 255.695312 C 306.609375 254.730469 306.164062 253.804688 305.636719 252.914062 C 305.109375 252.027344 304.507812 251.1875 303.835938 250.402344 C 303.164062 249.617188 302.433594 248.898438 301.636719 248.238281 C 300.839844 247.582031 299.992188 246.996094 299.09375 246.484375 C 298.199219 245.972656 297.261719 245.539062 296.292969 245.191406 C 295.320312 244.839844 294.324219 244.574219 293.308594 244.398438 C 292.289062 244.21875 291.265625 244.128906 290.230469 244.125 C 288.710938 244.144531 287.21875 244.359375 285.753906 244.761719 L 285.753906 194.242188 C 286.570312 194.8125 287.429688 195.300781 288.339844 195.707031 C 289.246094 196.109375 290.183594 196.425781 291.152344 196.652344 C 292.121094 196.882812 293.101562 197.015625 294.09375 197.054688 C 295.089844 197.09375 296.078125 197.039062 297.058594 196.890625 C 298.042969 196.742188 299.003906 196.5 299.941406 196.167969 C 300.878906 195.835938 301.773438 195.417969 302.632812 194.917969 C 303.488281 194.414062 304.292969 193.832031 305.039062 193.175781 C 305.785156 192.519531 306.464844 191.800781 307.074219 191.015625 C 307.683594 190.230469 308.214844 189.394531 308.664062 188.507812 C 309.113281 187.621094 309.476562 186.699219 309.75 185.742188 C 310.023438 184.785156 310.203125 183.8125 310.292969 182.824219 C 310.382812 181.832031 310.375 180.84375 310.277344 179.855469 C 310.175781 178.863281 309.984375 177.894531 309.699219 176.941406 C 309.414062 175.988281 309.039062 175.074219 308.578125 174.191406 C 308.117188 173.308594 307.578125 172.480469 306.960938 171.703125 C 306.34375 170.921875 305.65625 170.210938 304.902344 169.5625 L 285.753906 154.007812 L 285.753906 96.40625 C 285.753906 96.109375 285.726562 95.820312 285.667969 95.53125 C 285.613281 95.242188 285.527344 94.964844 285.414062 94.691406 C 285.300781 94.421875 285.164062 94.164062 285 93.917969 C 284.835938 93.671875 284.652344 93.449219 284.445312 93.238281 C 284.234375 93.03125 284.011719 92.847656 283.765625 92.683594 C 283.519531 92.519531 283.261719 92.382812 282.992188 92.269531 C 282.71875 92.15625 282.441406 92.070312 282.152344 92.015625 C 281.863281 91.957031 281.574219 91.929688 281.277344 91.929688 L 254.421875 91.929688 C 254.125 91.929688 253.835938 91.957031 253.546875 92.015625 C 253.257812 92.070312 252.980469 92.15625 252.707031 92.269531 C 252.4375 92.382812 252.175781 92.519531 251.933594 92.683594 C 251.6875 92.847656 251.460938 93.03125 251.253906 93.238281 C 251.046875 93.449219 250.863281 93.671875 250.699219 93.917969 C 250.535156 94.164062 250.398438 94.421875 250.285156 94.691406 C 250.171875 94.964844 250.085938 95.242188 250.03125 95.53125 C 249.972656 95.820312 249.945312 96.109375 249.945312 96.40625 L 249.945312 124.910156 L 197.59375 82.382812 C 196.886719 81.769531 196.136719 81.222656 195.335938 80.746094 C 194.53125 80.265625 193.695312 79.859375 192.820312 79.53125 C 191.949219 79.199219 191.050781 78.949219 190.132812 78.78125 C 189.214844 78.609375 188.289062 78.523438 187.355469 78.519531 C 186.421875 78.515625 185.496094 78.59375 184.574219 78.753906 C 183.65625 78.914062 182.757812 79.15625 181.878906 79.476562 C 181.003906 79.796875 180.160156 80.191406 179.355469 80.664062 C 178.550781 81.136719 177.792969 81.675781 177.082031 82.28125 L 69.542969 169.664062 C 68.964844 170.171875 68.425781 170.71875 67.925781 171.308594 C 67.425781 171.894531 66.972656 172.515625 66.566406 173.167969 C 66.160156 173.824219 65.800781 174.503906 65.496094 175.210938 C 65.1875 175.914062 64.933594 176.640625 64.734375 177.386719 C 64.53125 178.128906 64.386719 178.882812 64.300781 179.648438 C 64.210938 180.414062 64.179688 181.179688 64.203125 181.953125 C 64.226562 182.722656 64.308594 183.484375 64.445312 184.242188 C 64.582031 185 64.773438 185.746094 65.019531 186.476562 C 65.269531 187.207031 65.566406 187.914062 65.917969 188.597656 C 66.269531 189.285156 66.667969 189.941406 67.117188 190.566406 C 67.566406 191.195312 68.058594 191.785156 68.59375 192.339844 C 69.128906 192.894531 69.699219 193.40625 70.3125 193.875 C 70.921875 194.34375 71.5625 194.765625 72.234375 195.140625 C 72.910156 195.515625 73.605469 195.839844 74.328125 196.113281 C 75.046875 196.386719 75.785156 196.601562 76.535156 196.765625 C 77.289062 196.929688 78.050781 197.039062 78.820312 197.089844 C 79.175781 197.117188 79.53125 197.125 79.882812 197.125 C 81.480469 197.117188 83.042969 196.871094 84.5625 196.378906 C 86.082031 195.886719 87.492188 195.179688 88.792969 194.25 L 88.792969 244.761719 C 88.132812 244.582031 87.46875 244.4375 86.792969 244.332031 C 86.117188 244.230469 85.4375 244.164062 84.753906 244.136719 C 84.074219 244.113281 83.390625 244.125 82.710938 244.179688 C 82.027344 244.234375 81.351562 244.324219 80.683594 244.457031 C 80.011719 244.589844 79.351562 244.757812 78.699219 244.96875 C 78.050781 245.175781 77.414062 245.421875 76.789062 245.703125 C 76.167969 245.984375 75.566406 246.300781 74.980469 246.65625 C 74.394531 247.007812 73.832031 247.390625 73.289062 247.808594 C 72.75 248.226562 72.234375 248.671875 71.746094 249.148438 C 71.253906 249.628906 70.796875 250.132812 70.363281 250.660156 C 69.933594 251.191406 69.535156 251.746094 69.167969 252.320312 C 68.800781 252.898438 68.46875 253.496094 68.171875 254.109375 C 67.875 254.722656 67.613281 255.355469 67.390625 256 C 67.164062 256.644531 66.980469 257.300781 66.832031 257.96875 C 66.683594 258.636719 66.574219 259.308594 66.503906 259.988281 C 66.433594 260.667969 66.402344 261.347656 66.410156 262.03125 C 66.410156 262.21875 66.410156 262.410156 66.410156 262.597656 C 65.457031 262.84375 64.53125 263.167969 63.628906 263.566406 C 62.726562 263.96875 61.867188 264.441406 61.042969 264.984375 C 60.222656 265.523438 59.449219 266.132812 58.726562 266.800781 C 58.003906 267.472656 57.339844 268.195312 56.734375 268.976562 C 56.132812 269.753906 55.597656 270.578125 55.128906 271.445312 C 54.660156 272.3125 54.269531 273.210938 53.949219 274.144531 C 53.628906 275.078125 53.386719 276.03125 53.226562 277 C 53.0625 277.972656 52.980469 278.953125 52.980469 279.9375 C 52.992188 283.304688 53.886719 286.414062 55.667969 289.265625 C 55.195312 289.472656 54.773438 289.75 54.398438 290.101562 C 54.023438 290.453125 53.71875 290.859375 53.484375 291.316406 C 53.25 291.773438 53.097656 292.253906 53.027344 292.765625 C 52.957031 293.273438 52.976562 293.777344 53.082031 294.28125 C 53.1875 294.785156 53.371094 295.253906 53.640625 295.695312 C 53.90625 296.132812 54.238281 296.515625 54.636719 296.839844 C 55.035156 297.164062 55.476562 297.410156 55.960938 297.585938 C 56.445312 297.757812 56.945312 297.84375 57.457031 297.84375 L 317.089844 297.84375 C 317.382812 297.84375 317.675781 297.816406 317.964844 297.757812 C 318.25 297.699219 318.53125 297.617188 318.804688 297.503906 C 319.074219 297.390625 319.332031 297.253906 319.578125 297.089844 C 319.820312 296.925781 320.046875 296.742188 320.253906 296.53125 C 320.464844 296.324219 320.648438 296.097656 320.8125 295.855469 C 320.976562 295.609375 321.113281 295.351562 321.226562 295.082031 C 321.339844 294.808594 321.421875 294.527344 321.480469 294.242188 C 321.539062 293.953125 321.566406 293.660156 321.566406 293.367188 C 321.5625 292.859375 321.472656 292.371094 321.300781 291.894531 C 321.125 291.417969 320.878906 290.984375 320.554688 290.59375 C 320.234375 290.203125 319.855469 289.878906 319.417969 289.617188 C 318.984375 289.359375 318.519531 289.179688 318.019531 289.078125 C 318.460938 288.441406 318.863281 287.777344 319.226562 287.09375 C 319.589844 286.410156 319.914062 285.703125 320.195312 284.980469 C 320.476562 284.261719 320.714844 283.523438 320.914062 282.773438 C 321.109375 282.023438 321.261719 281.265625 321.371094 280.496094 C 321.476562 279.726562 321.542969 278.957031 321.5625 278.179688 C 321.578125 277.40625 321.554688 276.632812 321.480469 275.859375 C 321.410156 275.085938 321.296875 274.320312 321.136719 273.5625 C 320.976562 272.804688 320.773438 272.054688 320.527344 271.320312 C 320.277344 270.585938 319.992188 269.867188 319.660156 269.164062 C 319.332031 268.464844 318.960938 267.785156 318.550781 267.125 C 318.144531 266.464844 317.699219 265.832031 317.214844 265.226562 C 316.730469 264.617188 316.214844 264.039062 315.667969 263.492188 C 315.117188 262.945312 314.539062 262.433594 313.929688 261.953125 C 313.320312 261.472656 312.683594 261.027344 312.023438 260.621094 C 311.363281 260.214844 310.683594 259.851562 309.980469 259.523438 C 309.277344 259.195312 308.554688 258.910156 307.820312 258.667969 Z M 258.898438 100.882812 L 276.800781 100.882812 L 276.800781 146.734375 L 258.898438 132.183594 Z M 79.390625 188.171875 C 78.949219 188.144531 78.515625 188.070312 78.089844 187.957031 C 77.664062 187.84375 77.25 187.6875 76.855469 187.492188 C 76.457031 187.296875 76.085938 187.066406 75.734375 186.796875 C 75.382812 186.527344 75.0625 186.226562 74.769531 185.890625 C 74.480469 185.558594 74.222656 185.203125 74.003906 184.816406 C 73.78125 184.433594 73.601562 184.035156 73.460938 183.613281 C 73.320312 183.195312 73.222656 182.765625 73.164062 182.328125 C 73.109375 181.890625 73.09375 181.449219 73.125 181.007812 C 73.179688 180.152344 73.390625 179.335938 73.761719 178.558594 C 74.136719 177.785156 74.640625 177.109375 75.277344 176.53125 L 182.851562 89.117188 C 184.105469 88.019531 185.566406 87.46875 187.234375 87.472656 C 188.078125 87.476562 188.898438 87.628906 189.6875 87.929688 C 190.476562 88.230469 191.1875 88.664062 191.820312 89.226562 L 299.128906 176.40625 C 299.460938 176.699219 299.761719 177.019531 300.03125 177.367188 C 300.300781 177.714844 300.53125 178.089844 300.726562 178.484375 C 300.921875 178.878906 301.078125 179.289062 301.191406 179.714844 C 301.304688 180.140625 301.378906 180.574219 301.40625 181.011719 C 301.4375 181.453125 301.421875 181.890625 301.367188 182.328125 C 301.308594 182.765625 301.210938 183.191406 301.070312 183.609375 C 300.925781 184.027344 300.746094 184.425781 300.527344 184.808594 C 300.308594 185.191406 300.050781 185.546875 299.761719 185.878906 C 299.464844 186.21875 299.140625 186.523438 298.785156 186.796875 C 298.429688 187.070312 298.046875 187.304688 297.644531 187.5 C 297.242188 187.695312 296.820312 187.851562 296.386719 187.964844 C 295.953125 188.074219 295.511719 188.144531 295.0625 188.167969 C 294.613281 188.191406 294.167969 188.171875 293.722656 188.105469 C 293.28125 188.039062 292.847656 187.929688 292.425781 187.777344 C 292.003906 187.625 291.601562 187.433594 291.214844 187.199219 C 290.832031 186.96875 290.476562 186.699219 290.148438 186.394531 L 187.273438 103.285156 L 84.261719 186.507812 C 83.597656 187.101562 82.839844 187.542969 81.996094 187.832031 C 81.152344 188.121094 80.28125 188.234375 79.390625 188.171875 Z M 97.746094 187.132812 L 187.273438 114.789062 L 276.800781 187.113281 L 276.800781 250.3125 C 275.367188 251.929688 274.265625 253.746094 273.492188 255.765625 C 272.722656 257.78125 272.332031 259.871094 272.324219 262.03125 C 272.324219 262.21875 272.324219 262.410156 272.324219 262.597656 C 271.371094 262.84375 270.445312 263.167969 269.542969 263.566406 C 268.644531 263.96875 267.78125 264.441406 266.960938 264.984375 C 266.136719 265.523438 265.363281 266.132812 264.640625 266.800781 C 263.917969 267.472656 263.253906 268.195312 262.652344 268.976562 C 262.046875 269.753906 261.511719 270.578125 261.042969 271.445312 C 260.578125 272.3125 260.183594 273.210938 259.863281 274.144531 C 259.542969 275.078125 259.304688 276.03125 259.140625 277 C 258.980469 277.972656 258.898438 278.953125 258.898438 279.9375 C 258.914062 283.148438 259.746094 286.132812 261.386719 288.890625 L 169.367188 288.890625 L 169.367188 212.792969 C 169.367188 212.496094 169.339844 212.207031 169.28125 211.917969 C 169.226562 211.628906 169.140625 211.351562 169.027344 211.078125 C 168.914062 210.808594 168.777344 210.550781 168.613281 210.304688 C 168.449219 210.058594 168.265625 209.835938 168.058594 209.625 C 167.847656 209.417969 167.625 209.234375 167.378906 209.070312 C 167.132812 208.90625 166.875 208.769531 166.605469 208.65625 C 166.332031 208.542969 166.054688 208.457031 165.765625 208.402344 C 165.476562 208.34375 165.1875 208.316406 164.890625 208.316406 L 120.128906 208.316406 C 119.832031 208.316406 119.542969 208.34375 119.253906 208.402344 C 118.964844 208.457031 118.6875 208.542969 118.414062 208.65625 C 118.144531 208.769531 117.886719 208.90625 117.640625 209.070312 C 117.394531 209.234375 117.171875 209.417969 116.960938 209.625 C 116.753906 209.835938 116.570312 210.058594 116.40625 210.304688 C 116.242188 210.550781 116.105469 210.808594 115.992188 211.078125 C 115.878906 211.351562 115.792969 211.628906 115.738281 211.917969 C 115.679688 212.207031 115.652344 212.496094 115.652344 212.792969 L 115.652344 288.890625 L 112.242188 288.890625 C 112.671875 288.25 113.0625 287.589844 113.414062 286.902344 C 113.769531 286.21875 114.082031 285.515625 114.355469 284.796875 C 114.628906 284.074219 114.859375 283.339844 115.046875 282.59375 C 115.234375 281.84375 115.378906 281.089844 115.480469 280.324219 C 115.578125 279.5625 115.636719 278.792969 115.648438 278.023438 C 115.660156 277.253906 115.628906 276.484375 115.550781 275.71875 C 115.476562 274.949219 115.355469 274.191406 115.191406 273.4375 C 115.027344 272.683594 114.820312 271.941406 114.574219 271.214844 C 114.324219 270.484375 114.03125 269.773438 113.699219 269.074219 C 113.371094 268.378906 113 267.707031 112.589844 267.054688 C 112.179688 266.398438 111.734375 265.773438 111.253906 265.171875 C 110.773438 264.570312 110.257812 263.996094 109.710938 263.453125 C 109.160156 262.914062 108.585938 262.402344 107.980469 261.925781 C 107.371094 261.453125 106.742188 261.011719 106.082031 260.609375 C 105.425781 260.207031 104.75 259.84375 104.050781 259.515625 C 103.351562 259.191406 102.636719 258.910156 101.902344 258.667969 C 101.28125 255.476562 99.898438 252.667969 97.746094 250.234375 Z M 93.269531 288.890625 L 70.886719 288.890625 C 70.300781 288.894531 69.714844 288.839844 69.140625 288.730469 C 68.5625 288.621094 68 288.453125 67.457031 288.230469 C 66.910156 288.011719 66.394531 287.738281 65.902344 287.414062 C 65.414062 287.089844 64.957031 286.722656 64.539062 286.308594 C 64.121094 285.898438 63.746094 285.445312 63.417969 284.960938 C 63.085938 284.472656 62.808594 283.960938 62.578125 283.417969 C 62.351562 282.875 62.179688 282.316406 62.058594 281.742188 C 61.941406 281.164062 61.878906 280.585938 61.875 279.996094 C 61.871094 279.410156 61.925781 278.824219 62.035156 278.25 C 62.148438 277.671875 62.3125 277.109375 62.535156 276.566406 C 62.757812 276.019531 63.027344 275.503906 63.351562 275.011719 C 63.675781 274.523438 64.042969 274.066406 64.457031 273.648438 C 64.871094 273.230469 65.320312 272.855469 65.804688 272.527344 C 66.292969 272.195312 66.808594 271.917969 67.347656 271.6875 C 67.890625 271.460938 68.449219 271.285156 69.023438 271.167969 C 69.601562 271.050781 70.183594 270.988281 70.769531 270.984375 L 71.382812 271.058594 C 72.144531 271.121094 72.871094 271 73.566406 270.6875 C 74.261719 270.375 74.835938 269.914062 75.292969 269.300781 C 75.753906 268.695312 76.039062 268.019531 76.15625 267.265625 C 76.269531 266.515625 76.199219 265.78125 75.941406 265.066406 C 75.566406 264.089844 75.375 263.078125 75.363281 262.03125 C 75.355469 261.445312 75.410156 260.863281 75.515625 260.285156 C 75.625 259.707031 75.789062 259.144531 76.007812 258.597656 C 76.226562 258.054688 76.5 257.535156 76.820312 257.042969 C 77.140625 256.550781 77.507812 256.09375 77.917969 255.675781 C 78.332031 255.253906 78.777344 254.878906 79.265625 254.546875 C 79.75 254.214844 80.261719 253.933594 80.804688 253.703125 C 81.34375 253.472656 81.902344 253.296875 82.476562 253.175781 C 83.054688 253.054688 83.632812 252.992188 84.222656 252.984375 C 84.808594 252.980469 85.394531 253.03125 85.972656 253.140625 C 86.546875 253.246094 87.109375 253.410156 87.65625 253.632812 C 88.199219 253.851562 88.71875 254.121094 89.210938 254.441406 C 89.703125 254.761719 90.160156 255.128906 90.582031 255.542969 C 91 255.953125 91.375 256.402344 91.707031 256.886719 C 92.039062 257.371094 92.320312 257.882812 92.550781 258.425781 C 92.78125 258.964844 92.957031 259.523438 93.078125 260.097656 C 93.199219 260.675781 93.261719 261.257812 93.269531 261.84375 C 93.269531 261.988281 93.246094 262.136719 93.246094 262.257812 C 93.246094 262.796875 93.339844 263.316406 93.53125 263.820312 C 93.71875 264.328125 93.988281 264.78125 94.34375 265.191406 C 94.695312 265.597656 95.109375 265.929688 95.582031 266.1875 C 96.054688 266.445312 96.558594 266.613281 97.09375 266.6875 C 97.785156 266.785156 98.464844 266.945312 99.128906 267.171875 C 99.792969 267.394531 100.429688 267.679688 101.039062 268.027344 C 101.648438 268.371094 102.222656 268.769531 102.757812 269.222656 C 103.292969 269.675781 103.777344 270.171875 104.21875 270.71875 C 104.660156 271.261719 105.046875 271.84375 105.378906 272.460938 C 105.710938 273.078125 105.980469 273.722656 106.191406 274.390625 C 106.398438 275.058594 106.546875 275.742188 106.628906 276.4375 C 106.710938 277.132812 106.726562 277.832031 106.675781 278.53125 C 106.625 279.230469 106.511719 279.917969 106.332031 280.59375 C 106.152344 281.273438 105.910156 281.925781 105.605469 282.558594 C 105.304688 283.191406 104.945312 283.789062 104.527344 284.351562 C 104.113281 284.917969 103.648438 285.4375 103.136719 285.914062 C 102.621094 286.390625 102.066406 286.816406 101.472656 287.1875 C 100.878906 287.558594 100.257812 287.871094 99.605469 288.128906 C 98.953125 288.382812 98.28125 288.574219 97.59375 288.703125 C 96.902344 288.832031 96.207031 288.894531 95.507812 288.890625 Z M 124.605469 288.890625 L 124.605469 217.269531 L 160.414062 217.269531 L 160.414062 288.890625 Z M 281.277344 288.890625 L 276.800781 288.890625 C 276.214844 288.894531 275.632812 288.839844 275.054688 288.730469 C 274.476562 288.621094 273.917969 288.453125 273.371094 288.230469 C 272.828125 288.011719 272.308594 287.738281 271.820312 287.414062 C 271.328125 287.089844 270.875 286.722656 270.453125 286.308594 C 270.035156 285.898438 269.664062 285.445312 269.332031 284.960938 C 269.003906 284.472656 268.722656 283.960938 268.496094 283.417969 C 268.265625 282.875 268.09375 282.316406 267.976562 281.742188 C 267.855469 281.164062 267.796875 280.585938 267.792969 279.996094 C 267.789062 279.410156 267.839844 278.824219 267.953125 278.25 C 268.0625 277.671875 268.230469 277.109375 268.449219 276.566406 C 268.671875 276.019531 268.945312 275.503906 269.269531 275.011719 C 269.589844 274.523438 269.960938 274.066406 270.371094 273.648438 C 270.785156 273.230469 271.234375 272.855469 271.722656 272.527344 C 272.207031 272.195312 272.722656 271.917969 273.265625 271.6875 C 273.804688 271.460938 274.363281 271.285156 274.941406 271.167969 C 275.515625 271.050781 276.097656 270.988281 276.6875 270.984375 L 277.300781 271.058594 C 278.058594 271.121094 278.785156 271 279.480469 270.6875 C 280.175781 270.375 280.753906 269.914062 281.207031 269.300781 C 281.667969 268.695312 281.957031 268.019531 282.070312 267.265625 C 282.1875 266.515625 282.113281 265.78125 281.855469 265.066406 C 281.484375 264.089844 281.289062 263.078125 281.277344 262.03125 C 281.273438 261.445312 281.324219 260.863281 281.433594 260.285156 C 281.542969 259.707031 281.707031 259.144531 281.925781 258.601562 C 282.144531 258.054688 282.417969 257.539062 282.738281 257.046875 C 283.058594 256.554688 283.425781 256.097656 283.835938 255.679688 C 284.25 255.257812 284.695312 254.882812 285.179688 254.550781 C 285.667969 254.21875 286.179688 253.9375 286.71875 253.707031 C 287.261719 253.476562 287.820312 253.300781 288.394531 253.183594 C 288.96875 253.0625 289.550781 252.996094 290.136719 252.992188 C 290.726562 252.984375 291.308594 253.035156 291.886719 253.144531 C 292.464844 253.253906 293.023438 253.417969 293.570312 253.636719 C 294.113281 253.855469 294.632812 254.125 295.125 254.445312 C 295.617188 254.769531 296.074219 255.132812 296.492188 255.546875 C 296.914062 255.957031 297.289062 256.402344 297.621094 256.890625 C 297.953125 257.375 298.234375 257.886719 298.464844 258.425781 C 298.695312 258.96875 298.871094 259.527344 298.992188 260.101562 C 299.113281 260.675781 299.179688 261.257812 299.183594 261.84375 C 299.183594 261.988281 299.164062 262.136719 299.164062 262.257812 C 299.164062 262.796875 299.257812 263.316406 299.445312 263.820312 C 299.632812 264.328125 299.902344 264.78125 300.257812 265.191406 C 300.609375 265.597656 301.023438 265.929688 301.496094 266.1875 C 301.96875 266.445312 302.472656 266.613281 303.007812 266.6875 C 303.703125 266.785156 304.378906 266.945312 305.042969 267.171875 C 305.707031 267.394531 306.34375 267.679688 306.953125 268.027344 C 307.5625 268.371094 308.136719 268.769531 308.671875 269.222656 C 309.207031 269.675781 309.695312 270.171875 310.136719 270.71875 C 310.574219 271.261719 310.960938 271.84375 311.292969 272.460938 C 311.625 273.078125 311.894531 273.722656 312.105469 274.390625 C 312.316406 275.058594 312.460938 275.742188 312.542969 276.4375 C 312.625 277.132812 312.640625 277.832031 312.589844 278.53125 C 312.539062 279.230469 312.425781 279.917969 312.246094 280.59375 C 312.066406 281.273438 311.824219 281.925781 311.523438 282.558594 C 311.21875 283.191406 310.859375 283.789062 310.445312 284.351562 C 310.027344 284.917969 309.5625 285.4375 309.050781 285.914062 C 308.535156 286.390625 307.984375 286.816406 307.390625 287.1875 C 306.796875 287.558594 306.171875 287.871094 305.519531 288.128906 C 304.867188 288.382812 304.195312 288.574219 303.507812 288.703125 C 302.816406 288.832031 302.125 288.894531 301.421875 288.890625 Z M 281.277344 288.890625 " fill-opacity="1" fill-rule="nonzero"/></g><path fill="#41a9b5" d="M 191.75 262.03125 L 254.421875 262.03125 C 254.714844 262.03125 255.003906 262.003906 255.292969 261.945312 C 255.582031 261.890625 255.863281 261.804688 256.132812 261.691406 C 256.40625 261.578125 256.664062 261.441406 256.90625 261.277344 C 257.152344 261.113281 257.378906 260.929688 257.585938 260.722656 C 257.792969 260.511719 257.980469 260.289062 258.140625 260.042969 C 258.304688 259.796875 258.445312 259.539062 258.554688 259.269531 C 258.667969 258.996094 258.753906 258.71875 258.8125 258.429688 C 258.867188 258.140625 258.898438 257.851562 258.898438 257.554688 L 258.898438 212.792969 C 258.898438 212.496094 258.867188 212.207031 258.8125 211.917969 C 258.753906 211.628906 258.667969 211.351562 258.554688 211.078125 C 258.445312 210.808594 258.304688 210.550781 258.140625 210.304688 C 257.980469 210.058594 257.792969 209.835938 257.585938 209.625 C 257.378906 209.417969 257.152344 209.234375 256.90625 209.070312 C 256.664062 208.90625 256.40625 208.769531 256.132812 208.65625 C 255.863281 208.542969 255.582031 208.457031 255.292969 208.402344 C 255.003906 208.34375 254.714844 208.316406 254.421875 208.316406 L 191.75 208.316406 C 191.457031 208.316406 191.164062 208.34375 190.878906 208.402344 C 190.589844 208.457031 190.308594 208.542969 190.039062 208.65625 C 189.765625 208.769531 189.507812 208.90625 189.261719 209.070312 C 189.019531 209.234375 188.792969 209.417969 188.585938 209.625 C 188.378906 209.835938 188.191406 210.058594 188.027344 210.304688 C 187.863281 210.550781 187.726562 210.808594 187.613281 211.078125 C 187.503906 211.351562 187.417969 211.628906 187.359375 211.917969 C 187.300781 212.207031 187.273438 212.496094 187.273438 212.792969 L 187.273438 257.554688 C 187.273438 257.851562 187.300781 258.140625 187.359375 258.429688 C 187.417969 258.71875 187.503906 258.996094 187.613281 259.269531 C 187.726562 259.539062 187.863281 259.796875 188.027344 260.042969 C 188.191406 260.289062 188.378906 260.511719 188.585938 260.722656 C 188.792969 260.929688 189.019531 261.113281 189.261719 261.277344 C 189.507812 261.441406 189.765625 261.578125 190.039062 261.691406 C 190.308594 261.804688 190.589844 261.890625 190.878906 261.945312 C 191.164062 262.003906 191.457031 262.03125 191.75 262.03125 Z M 249.945312 253.078125 L 227.5625 253.078125 L 227.5625 217.269531 L 249.945312 217.269531 Z M 196.226562 217.269531 L 218.609375 217.269531 L 218.609375 253.078125 L 196.226562 253.078125 Z M 196.226562 217.269531 " fill-opacity="1" fill-rule="nonzero"/></svg>