<svg xmlns="http://www.w3.org/2000/svg" xmlns:xlink="http://www.w3.org/1999/xlink" width="500" zoomAndPan="magnify" viewBox="0 0 375 374.999991" height="500" preserveAspectRatio="xMidYMid meet" version="1.0"><defs><clipPath id="e597dea4d5"><path d="M 61.144531 47.445312 L 313.894531 47.445312 L 313.894531 337.695312 L 61.144531 337.695312 Z M 61.144531 47.445312 " clip-rule="nonzero"/></clipPath></defs><path fill="#a6a6a6" d="M 187.496094 66.160156 C 137.675781 66.160156 98.609375 84.871094 98.609375 108.265625 C 98.609375 131.65625 137.675781 150.367188 187.496094 150.367188 C 237.320312 150.367188 276.382812 131.890625 276.382812 108.265625 C 276.382812 84.640625 237.320312 66.160156 187.496094 66.160156 Z M 187.496094 141.011719 C 139.917969 141.011719 107.96875 124.078125 107.96875 108.265625 C 107.96875 92.453125 139.917969 75.515625 187.496094 75.515625 C 235.074219 75.515625 267.027344 92.453125 267.027344 108.265625 C 267.027344 124.078125 235.074219 141.011719 187.496094 141.011719 Z M 187.496094 141.011719 " fill-opacity="1" fill-rule="nonzero"/><path fill="#a6a6a6" d="M 240.921875 243.933594 C 242.683594 241.0625 243.585938 237.941406 243.636719 234.578125 C 243.636719 233.964844 243.605469 233.351562 243.546875 232.742188 C 243.484375 232.132812 243.394531 231.527344 243.277344 230.925781 C 243.15625 230.324219 243.007812 229.730469 242.832031 229.144531 C 242.652344 228.558594 242.445312 227.980469 242.210938 227.414062 C 241.976562 226.847656 241.714844 226.296875 241.425781 225.753906 C 241.136719 225.214844 240.824219 224.691406 240.480469 224.179688 C 240.140625 223.671875 239.777344 223.179688 239.386719 222.703125 C 239 222.230469 238.589844 221.777344 238.15625 221.34375 C 237.722656 220.910156 237.269531 220.5 236.792969 220.109375 C 236.320312 219.722656 235.828125 219.359375 235.320312 219.015625 C 234.808594 218.675781 234.285156 218.363281 233.746094 218.074219 C 233.203125 217.785156 232.652344 217.523438 232.085938 217.289062 C 231.519531 217.054688 230.941406 216.847656 230.355469 216.667969 C 229.769531 216.492188 229.175781 216.34375 228.574219 216.222656 C 227.972656 216.101562 227.367188 216.011719 226.757812 215.953125 C 226.148438 215.894531 225.535156 215.863281 224.921875 215.863281 L 150.070312 215.863281 C 149.457031 215.863281 148.847656 215.894531 148.238281 215.953125 C 147.628906 216.011719 147.023438 216.101562 146.421875 216.222656 C 145.820312 216.34375 145.226562 216.492188 144.640625 216.667969 C 144.050781 216.847656 143.476562 217.054688 142.910156 217.289062 C 142.34375 217.523438 141.789062 217.785156 141.25 218.074219 C 140.710938 218.363281 140.183594 218.675781 139.675781 219.015625 C 139.164062 219.359375 138.671875 219.722656 138.199219 220.109375 C 137.726562 220.5 137.273438 220.910156 136.839844 221.34375 C 136.40625 221.777344 135.996094 222.230469 135.605469 222.703125 C 135.21875 223.179688 134.851562 223.671875 134.511719 224.179688 C 134.171875 224.691406 133.855469 225.214844 133.566406 225.753906 C 133.277344 226.296875 133.015625 226.847656 132.78125 227.414062 C 132.546875 227.980469 132.34375 228.558594 132.164062 229.144531 C 131.984375 229.730469 131.835938 230.324219 131.71875 230.925781 C 131.597656 231.527344 131.507812 232.132812 131.449219 232.742188 C 131.386719 233.351562 131.359375 233.964844 131.359375 234.578125 C 131.40625 237.941406 132.3125 241.0625 134.070312 243.933594 C 133.316406 244.011719 132.570312 244.136719 131.832031 244.304688 C 131.089844 244.476562 130.367188 244.691406 129.652344 244.949219 C 128.9375 245.207031 128.242188 245.507812 127.566406 245.847656 C 126.890625 246.191406 126.238281 246.574219 125.605469 246.996094 C 124.976562 247.417969 124.375 247.878906 123.800781 248.371094 C 123.226562 248.867188 122.683594 249.394531 122.171875 249.957031 C 121.664062 250.519531 121.1875 251.109375 120.75 251.726562 C 120.3125 252.347656 119.910156 252.992188 119.550781 253.65625 C 119.191406 254.324219 118.871094 255.011719 118.597656 255.71875 C 118.320312 256.425781 118.085938 257.144531 117.898438 257.878906 C 117.707031 258.613281 117.566406 259.359375 117.464844 260.109375 C 117.367188 260.863281 117.316406 261.617188 117.308594 262.375 C 117.300781 263.132812 117.339844 263.890625 117.425781 264.644531 C 117.511719 265.398438 117.640625 266.144531 117.816406 266.882812 C 117.992188 267.621094 118.210938 268.34375 118.476562 269.054688 C 118.742188 269.765625 119.046875 270.460938 119.394531 271.132812 C 119.742188 271.808594 120.128906 272.457031 120.558594 273.085938 C 120.984375 273.710938 121.449219 274.308594 121.949219 274.878906 C 122.449219 275.449219 122.980469 275.988281 123.546875 276.492188 C 124.113281 277 124.707031 277.46875 125.328125 277.902344 C 125.953125 278.335938 126.597656 278.730469 127.269531 279.085938 C 127.9375 279.4375 128.628906 279.753906 129.335938 280.023438 C 130.046875 280.292969 130.769531 280.519531 131.503906 280.703125 C 132.242188 280.886719 132.984375 281.023438 133.738281 281.117188 C 134.492188 281.210938 135.246094 281.257812 136.003906 281.257812 C 136.761719 281.257812 137.519531 281.210938 138.273438 281.121094 C 139.023438 281.03125 139.769531 280.894531 140.507812 280.710938 C 141.242188 280.53125 141.964844 280.304688 142.675781 280.035156 C 143.382812 279.765625 144.074219 279.453125 144.746094 279.097656 C 145.414062 278.746094 146.0625 278.351562 146.6875 277.917969 C 147.308594 277.488281 147.902344 277.019531 148.46875 276.515625 C 149.035156 276.007812 149.570312 275.472656 150.070312 274.902344 C 150.945312 275.910156 151.914062 276.8125 152.976562 277.613281 C 154.042969 278.410156 155.179688 279.089844 156.390625 279.648438 C 157.601562 280.203125 158.855469 280.625 160.15625 280.914062 C 161.457031 281.203125 162.773438 281.351562 164.105469 281.359375 L 238.957031 281.359375 C 239.570312 281.390625 240.183594 281.394531 240.796875 281.363281 C 241.410156 281.335938 242.019531 281.277344 242.628906 281.191406 C 243.234375 281.101562 243.835938 280.984375 244.433594 280.839844 C 245.027344 280.691406 245.613281 280.515625 246.195312 280.308594 C 246.773438 280.105469 247.339844 279.871094 247.894531 279.613281 C 248.449219 279.351562 248.992188 279.066406 249.519531 278.75 C 250.046875 278.4375 250.558594 278.097656 251.050781 277.734375 C 251.546875 277.371094 252.023438 276.984375 252.476562 276.574219 C 252.933594 276.160156 253.367188 275.730469 253.78125 275.277344 C 254.195312 274.824219 254.585938 274.351562 254.953125 273.859375 C 255.320312 273.367188 255.664062 272.859375 255.980469 272.332031 C 256.296875 271.808594 256.589844 271.269531 256.851562 270.714844 C 257.117188 270.160156 257.355469 269.59375 257.5625 269.019531 C 257.769531 268.441406 257.949219 267.855469 258.101562 267.261719 C 258.253906 266.664062 258.375 266.066406 258.464844 265.457031 C 258.558594 264.851562 258.621094 264.242188 258.652344 263.628906 C 258.683594 263.015625 258.6875 262.402344 258.660156 261.789062 C 258.632812 261.175781 258.574219 260.566406 258.484375 259.957031 C 258.398438 259.351562 258.28125 258.75 258.132812 258.152344 C 257.984375 257.558594 257.808594 256.972656 257.605469 256.390625 C 257.398438 255.8125 257.167969 255.246094 256.90625 254.691406 C 256.644531 254.136719 256.359375 253.59375 256.046875 253.066406 C 255.730469 252.539062 255.394531 252.027344 255.027344 251.535156 C 254.664062 251.039062 254.277344 250.566406 253.867188 250.109375 C 253.457031 249.652344 253.023438 249.21875 252.570312 248.804688 C 252.117188 248.390625 251.644531 248 251.152344 247.632812 C 250.660156 247.265625 250.152344 246.921875 249.628906 246.605469 C 249.101562 246.289062 248.5625 245.996094 248.007812 245.734375 C 247.457031 245.46875 246.890625 245.234375 246.3125 245.023438 C 245.734375 244.816406 245.148438 244.636719 244.554688 244.484375 C 243.960938 244.332031 243.359375 244.210938 242.753906 244.121094 C 242.144531 244.027344 241.535156 243.964844 240.921875 243.933594 Z M 166.070312 225.21875 L 224.921875 225.21875 C 225.738281 225.226562 226.542969 225.335938 227.328125 225.550781 C 228.117188 225.765625 228.863281 226.078125 229.570312 226.488281 C 230.273438 226.898438 230.917969 227.390625 231.492188 227.96875 C 232.070312 228.546875 232.5625 229.191406 232.96875 229.898438 L 215.566406 229.898438 L 215.566406 239.253906 L 232.96875 239.253906 C 232.5625 239.960938 232.070312 240.605469 231.492188 241.183594 C 230.917969 241.761719 230.273438 242.253906 229.570312 242.664062 C 228.863281 243.074219 228.117188 243.386719 227.328125 243.601562 C 226.542969 243.816406 225.738281 243.929688 224.921875 243.933594 L 166.164062 243.933594 C 167.023438 242.523438 167.671875 241.023438 168.117188 239.433594 C 168.5625 237.847656 168.785156 236.226562 168.785156 234.578125 C 168.785156 232.925781 168.5625 231.308594 168.117188 229.71875 C 167.671875 228.128906 167.023438 226.628906 166.164062 225.21875 Z M 136.035156 272.003906 C 135.421875 272.003906 134.8125 271.941406 134.210938 271.824219 C 133.609375 271.703125 133.023438 271.523438 132.457031 271.289062 C 131.886719 271.054688 131.347656 270.765625 130.839844 270.425781 C 130.328125 270.085938 129.855469 269.695312 129.421875 269.261719 C 128.984375 268.828125 128.597656 268.355469 128.257812 267.84375 C 127.914062 267.332031 127.628906 266.792969 127.390625 266.226562 C 127.15625 265.660156 126.980469 265.074219 126.859375 264.472656 C 126.738281 263.867188 126.679688 263.261719 126.679688 262.644531 C 126.679688 262.03125 126.738281 261.421875 126.859375 260.820312 C 126.980469 260.21875 127.15625 259.632812 127.390625 259.066406 C 127.628906 258.496094 127.914062 257.957031 128.257812 257.449219 C 128.597656 256.9375 128.984375 256.464844 129.421875 256.03125 C 129.855469 255.59375 130.328125 255.207031 130.839844 254.867188 C 131.347656 254.523438 131.886719 254.238281 132.457031 254 C 133.023438 253.765625 133.609375 253.589844 134.210938 253.46875 C 134.8125 253.347656 135.421875 253.289062 136.035156 253.289062 C 136.652344 253.289062 137.257812 253.347656 137.863281 253.46875 C 138.464844 253.589844 139.050781 253.765625 139.617188 254 C 140.183594 254.238281 140.722656 254.523438 141.234375 254.867188 C 141.746094 255.207031 142.21875 255.59375 142.652344 256.03125 C 143.085938 256.464844 143.476562 256.9375 143.816406 257.449219 C 144.15625 257.957031 144.445312 258.496094 144.679688 259.066406 C 144.914062 259.632812 145.09375 260.21875 145.214844 260.820312 C 145.332031 261.421875 145.394531 262.03125 145.394531 262.644531 C 145.394531 263.261719 145.332031 263.867188 145.214844 264.472656 C 145.09375 265.074219 144.914062 265.660156 144.679688 266.226562 C 144.445312 266.792969 144.15625 267.332031 143.816406 267.84375 C 143.476562 268.355469 143.085938 268.828125 142.652344 269.261719 C 142.21875 269.695312 141.746094 270.085938 141.234375 270.425781 C 140.722656 270.765625 140.183594 271.054688 139.617188 271.289062 C 139.050781 271.523438 138.464844 271.703125 137.863281 271.824219 C 137.257812 271.941406 136.652344 272.003906 136.035156 272.003906 Z M 140.714844 234.578125 C 140.714844 233.960938 140.773438 233.355469 140.894531 232.75 C 141.015625 232.148438 141.191406 231.5625 141.425781 230.996094 C 141.660156 230.429688 141.949219 229.890625 142.292969 229.378906 C 142.632812 228.867188 143.019531 228.394531 143.457031 227.960938 C 143.890625 227.527344 144.363281 227.136719 144.875 226.796875 C 145.382812 226.457031 145.921875 226.167969 146.492188 225.933594 C 147.058594 225.695312 147.644531 225.519531 148.246094 225.398438 C 148.847656 225.28125 149.457031 225.21875 150.070312 225.21875 C 150.6875 225.21875 151.292969 225.28125 151.898438 225.398438 C 152.5 225.519531 153.085938 225.695312 153.652344 225.933594 C 154.21875 226.167969 154.757812 226.457031 155.269531 226.796875 C 155.78125 227.136719 156.253906 227.527344 156.6875 227.960938 C 157.121094 228.394531 157.507812 228.867188 157.851562 229.378906 C 158.191406 229.890625 158.480469 230.429688 158.714844 230.996094 C 158.949219 231.5625 159.128906 232.148438 159.246094 232.75 C 159.367188 233.355469 159.425781 233.960938 159.425781 234.578125 C 159.425781 235.191406 159.367188 235.800781 159.246094 236.402344 C 159.128906 237.003906 158.949219 237.589844 158.714844 238.15625 C 158.480469 238.722656 158.191406 239.265625 157.851562 239.773438 C 157.507812 240.285156 157.121094 240.757812 156.6875 241.191406 C 156.253906 241.625 155.78125 242.015625 155.269531 242.355469 C 154.757812 242.699219 154.21875 242.984375 153.652344 243.21875 C 153.085938 243.457031 152.5 243.632812 151.898438 243.753906 C 151.292969 243.871094 150.6875 243.933594 150.070312 243.933594 C 149.457031 243.933594 148.847656 243.871094 148.246094 243.753906 C 147.644531 243.632812 147.058594 243.457031 146.492188 243.21875 C 145.921875 242.984375 145.382812 242.699219 144.875 242.355469 C 144.363281 242.015625 143.890625 241.625 143.457031 241.191406 C 143.019531 240.757812 142.632812 240.285156 142.292969 239.773438 C 141.949219 239.265625 141.660156 238.722656 141.425781 238.15625 C 141.191406 237.589844 141.015625 237.003906 140.894531 236.402344 C 140.773438 235.800781 140.714844 235.191406 140.714844 234.578125 Z M 164.105469 272.003906 C 163.492188 272.003906 162.882812 271.941406 162.28125 271.824219 C 161.679688 271.703125 161.09375 271.523438 160.523438 271.289062 C 159.957031 271.054688 159.417969 270.765625 158.90625 270.425781 C 158.398438 270.085938 157.925781 269.695312 157.488281 269.261719 C 157.054688 268.828125 156.667969 268.355469 156.328125 267.84375 C 155.984375 267.332031 155.695312 266.792969 155.460938 266.226562 C 155.226562 265.660156 155.050781 265.074219 154.929688 264.472656 C 154.808594 263.867188 154.75 263.261719 154.75 262.644531 C 154.75 262.03125 154.808594 261.421875 154.929688 260.820312 C 155.050781 260.21875 155.226562 259.632812 155.460938 259.066406 C 155.695312 258.496094 155.984375 257.957031 156.328125 257.449219 C 156.667969 256.9375 157.054688 256.464844 157.488281 256.03125 C 157.925781 255.59375 158.398438 255.207031 158.90625 254.867188 C 159.417969 254.523438 159.957031 254.238281 160.523438 254 C 161.09375 253.765625 161.679688 253.589844 162.28125 253.46875 C 162.882812 253.347656 163.492188 253.289062 164.105469 253.289062 C 164.71875 253.289062 165.328125 253.347656 165.929688 253.46875 C 166.535156 253.589844 167.117188 253.765625 167.6875 254 C 168.253906 254.238281 168.792969 254.523438 169.304688 254.867188 C 169.816406 255.207031 170.289062 255.59375 170.722656 256.03125 C 171.15625 256.464844 171.542969 256.9375 171.886719 257.449219 C 172.226562 257.957031 172.515625 258.496094 172.75 259.066406 C 172.984375 259.632812 173.164062 260.21875 173.28125 260.820312 C 173.402344 261.421875 173.460938 262.03125 173.460938 262.644531 C 173.460938 263.261719 173.402344 263.867188 173.28125 264.472656 C 173.164062 265.074219 172.984375 265.660156 172.75 266.226562 C 172.515625 266.792969 172.226562 267.332031 171.886719 267.84375 C 171.542969 268.355469 171.15625 268.828125 170.722656 269.261719 C 170.289062 269.695312 169.816406 270.085938 169.304688 270.425781 C 168.792969 270.765625 168.253906 271.054688 167.6875 271.289062 C 167.117188 271.523438 166.535156 271.703125 165.929688 271.824219 C 165.328125 271.941406 164.71875 272.003906 164.105469 272.003906 Z M 247.003906 267.324219 C 246.597656 268.03125 246.105469 268.671875 245.527344 269.25 C 244.949219 269.832031 244.308594 270.324219 243.605469 270.734375 C 242.898438 271.144531 242.152344 271.457031 241.363281 271.671875 C 240.578125 271.886719 239.773438 271.996094 238.957031 272.003906 L 180.199219 272.003906 C 181.054688 270.59375 181.707031 269.09375 182.152344 267.503906 C 182.597656 265.914062 182.820312 264.296875 182.820312 262.644531 C 182.820312 260.996094 182.597656 259.375 182.152344 257.789062 C 181.707031 256.199219 181.054688 254.699219 180.199219 253.289062 L 238.957031 253.289062 C 239.773438 253.292969 240.578125 253.402344 241.363281 253.617188 C 242.152344 253.832031 242.898438 254.148438 243.605469 254.558594 C 244.308594 254.96875 244.949219 255.460938 245.527344 256.039062 C 246.105469 256.617188 246.597656 257.261719 247.003906 257.96875 L 229.601562 257.96875 L 229.601562 267.324219 Z M 247.003906 267.324219 " fill-opacity="1" fill-rule="nonzero"/><path fill="#a6a6a6" d="M 178.140625 229.898438 L 192.175781 229.898438 L 192.175781 239.253906 L 178.140625 239.253906 Z M 178.140625 229.898438 " fill-opacity="1" fill-rule="nonzero"/><path fill="#a6a6a6" d="M 192.175781 257.96875 L 206.210938 257.96875 L 206.210938 267.324219 L 192.175781 267.324219 Z M 192.175781 257.96875 " fill-opacity="1" fill-rule="nonzero"/><g clip-path="url(#e597dea4d5)"><path fill="#a6a6a6" d="M 309.132812 112.941406 L 295.097656 112.941406 L 295.097656 108.265625 C 295.097656 74.160156 247.847656 47.445312 187.496094 47.445312 C 127.148438 47.445312 79.898438 74.160156 79.898438 108.265625 L 79.898438 112.941406 L 65.863281 112.941406 C 65.554688 112.941406 65.25 112.972656 64.949219 113.03125 C 64.648438 113.09375 64.355469 113.179688 64.074219 113.296875 C 63.789062 113.414062 63.519531 113.558594 63.265625 113.730469 C 63.007812 113.902344 62.773438 114.09375 62.554688 114.3125 C 62.335938 114.53125 62.144531 114.765625 61.972656 115.019531 C 61.800781 115.277344 61.660156 115.546875 61.539062 115.832031 C 61.421875 116.113281 61.335938 116.40625 61.273438 116.707031 C 61.214844 117.007812 61.183594 117.3125 61.183594 117.621094 L 61.183594 145.691406 C 61.183594 145.996094 61.214844 146.300781 61.273438 146.601562 C 61.335938 146.902344 61.421875 147.195312 61.539062 147.480469 C 61.660156 147.765625 61.800781 148.035156 61.972656 148.289062 C 62.144531 148.542969 62.335938 148.78125 62.554688 148.996094 C 62.773438 149.214844 63.007812 149.410156 63.265625 149.578125 C 63.519531 149.75 63.789062 149.894531 64.074219 150.011719 C 64.355469 150.128906 64.648438 150.21875 64.949219 150.277344 C 65.25 150.339844 65.554688 150.367188 65.863281 150.367188 L 79.898438 150.367188 L 79.898438 276.679688 C 79.898438 310.785156 127.148438 337.496094 187.496094 337.496094 C 247.847656 337.496094 295.097656 310.785156 295.097656 276.679688 L 295.097656 150.367188 L 309.132812 150.367188 C 309.4375 150.367188 309.742188 150.339844 310.042969 150.277344 C 310.34375 150.21875 310.636719 150.128906 310.921875 150.011719 C 311.207031 149.894531 311.476562 149.75 311.730469 149.578125 C 311.984375 149.410156 312.222656 149.214844 312.4375 148.996094 C 312.65625 148.78125 312.851562 148.542969 313.019531 148.289062 C 313.191406 148.035156 313.335938 147.765625 313.453125 147.480469 C 313.570312 147.195312 313.660156 146.902344 313.71875 146.601562 C 313.78125 146.300781 313.808594 145.996094 313.808594 145.691406 L 313.808594 117.621094 C 313.808594 117.3125 313.78125 117.007812 313.71875 116.707031 C 313.660156 116.40625 313.570312 116.113281 313.453125 115.832031 C 313.335938 115.546875 313.191406 115.277344 313.019531 115.019531 C 312.851562 114.765625 312.65625 114.53125 312.4375 114.3125 C 312.222656 114.09375 311.984375 113.902344 311.730469 113.730469 C 311.476562 113.558594 311.207031 113.414062 310.921875 113.296875 C 310.636719 113.179688 310.34375 113.09375 310.042969 113.03125 C 309.742188 112.972656 309.4375 112.941406 309.132812 112.941406 Z M 79.898438 141.011719 L 70.542969 141.011719 L 70.542969 122.296875 L 79.898438 122.296875 Z M 285.738281 276.679688 C 285.738281 304.75 240.734375 328.140625 187.496094 328.140625 C 134.257812 328.140625 89.253906 304.75 89.253906 276.679688 L 89.253906 273.828125 C 105.910156 294.972656 143.148438 309.429688 187.496094 309.429688 C 231.847656 309.429688 269.085938 294.972656 285.738281 273.828125 Z M 285.738281 248.609375 C 285.738281 276.679688 240.734375 300.070312 187.496094 300.070312 C 134.257812 300.070312 89.253906 276.679688 89.253906 248.609375 L 89.253906 166.226562 C 105.910156 187.371094 143.148438 201.828125 187.496094 201.828125 C 231.847656 201.828125 269.085938 187.371094 285.738281 166.226562 Z M 285.738281 141.011719 C 285.738281 169.082031 240.734375 192.472656 187.496094 192.472656 C 134.257812 192.472656 89.253906 169.082031 89.253906 141.011719 L 89.253906 133.480469 C 105.910156 154.625 143.148438 169.082031 187.496094 169.082031 C 231.847656 169.082031 269.085938 154.625 285.738281 133.480469 Z M 187.496094 159.722656 C 134.257812 159.722656 89.253906 136.332031 89.253906 108.265625 C 89.253906 80.195312 134.257812 56.804688 187.496094 56.804688 C 240.734375 56.804688 285.738281 80.195312 285.738281 108.265625 C 285.738281 136.332031 240.734375 159.722656 187.496094 159.722656 Z M 304.453125 141.011719 L 295.097656 141.011719 L 295.097656 122.296875 L 304.453125 122.296875 Z M 304.453125 141.011719 " fill-opacity="1" fill-rule="nonzero"/></g></svg>